<svg xmlns="http://www.w3.org/2000/svg" width="319" height="426" viewBox="0 0 319 426" fill="none"><path fill-rule="evenodd" clip-rule="evenodd" d="M315.06 0.493846C297.644 13.7899 284.729 33.0476 278.959 54.2187C274.938 69.0245 274.578 84.3519 274.221 99.5586C274.086 105.302 273.952 111.028 273.62 116.702C273.188 127.373 272.044 138.029 268.915 148.362C265.783 158.837 260.675 168.564 254.235 177.344C226.789 214.907 180.779 231.654 138.101 245.497C136.618 245.98 135.134 246.463 133.649 246.945C112.833 253.713 91.8625 260.531 72.0174 269.898C49.9642 280.412 28.5524 294.334 14.407 314.628C2.89684 331.297 -2.93993 352.255 1.62723 372.292C5.60536 389.842 16.6791 404.778 28.136 418.378C29.143 419.565 30.1507 420.717 31.1584 421.87C31.5124 422.274 31.8664 422.679 32.2203 423.085C32.874 423.835 33.5275 424.591 34.1807 425.361L37.7359 421.968C30.6493 413.761 23.6353 405.485 17.7764 396.384C7.43688 380.331 2.26021 362.262 6.84612 343.33C12.2941 320.526 28.6711 302.399 47.7874 289.421C74.2347 271.437 104.693 261.618 135.078 251.822C149.365 247.216 163.636 242.615 177.465 237.173C216.188 221.977 255.967 196.9 271.59 156.621C278.604 138.522 278.956 119.2 279.304 100.075C279.333 98.5117 279.361 96.9496 279.393 95.3897C279.835 73.8981 281.972 53.0068 292.606 33.9857C298.68 23.1892 306.735 13.7025 316.31 5.96345C317.092 5.33184 317.883 4.71188 318.685 4.10379L315.133 0.424595L315.06 0.493846Z" fill="#C4E4DD"></path></svg>