<svg xmlns="http://www.w3.org/2000/svg" width="156" height="156" viewBox="0 0 156 156" fill="none"><path d="M11.9632 75.9902C11.7718 76.5644 11.3889 77.1387 11.1018 77.5215L9.95336 76.8515C10.3362 76.4687 10.6233 75.9902 10.8147 75.5117C11.0061 75.0331 11.1018 74.5546 11.1975 73.8847C11.1975 73.2147 11.1975 72.7362 10.9104 72.3534C10.719 71.9706 10.4319 71.7791 9.95336 71.7791C9.57054 71.7791 9.37913 71.8749 9.09201 72.2577C8.9006 72.5448 8.7092 73.119 8.51779 73.789C8.23067 74.9374 7.84784 75.7031 7.36931 76.2773C6.98649 76.7558 6.31655 77.043 5.55091 76.9472C4.97668 76.9472 4.49815 76.7558 4.11533 76.373C3.7325 76.0859 3.44539 75.6074 3.15827 75.0331C2.96686 74.4589 2.87115 73.8847 2.87115 73.119C2.87115 72.4491 3.06257 71.8749 3.25398 71.3006C3.44539 70.7264 3.82821 70.2479 4.11533 69.9607L5.26379 70.6307C4.59385 71.3963 4.21103 72.2577 4.11533 73.3104C4.11533 73.8847 4.21103 74.3632 4.40244 74.746C4.59385 75.1288 4.97668 75.3202 5.3595 75.3202C5.74232 75.3202 6.02944 75.2245 6.22085 74.9374C6.41226 74.6503 6.60367 74.1718 6.89079 73.4061C7.0822 72.6405 7.36931 72.0663 7.56073 71.5877C7.94355 71.1092 8.23066 70.8221 8.61349 70.535C8.99631 70.3436 9.37914 70.1522 9.85767 70.2479C10.4319 70.2479 10.9104 70.4393 11.2932 70.7264C11.6761 71.0135 11.9632 71.492 12.1546 72.0663C12.346 72.6405 12.4417 73.3104 12.346 74.0761C12.346 74.746 12.1546 75.416 11.9632 75.9902Z" fill="#00C194"></path><path d="M4.40253 61.4429L4.78535 59.7202L6.31664 60.1031L5.93382 61.8258L4.40253 61.4429ZM13.686 63.5485L7.3694 62.0172L7.75222 60.4859L14.0688 62.0172L13.686 63.5485Z" fill="#00C194"></path><path d="M14.93 47.7571L18.6625 49.2884L17.9926 50.8196L14.3558 49.2884C13.8772 49.0969 13.4944 49.0012 13.2073 49.0969C12.9202 49.1927 12.7288 49.3841 12.5374 49.7669C12.3459 50.2454 12.3459 50.6282 12.5374 51.0111C12.7288 51.3939 13.0159 51.681 13.4944 51.8724L16.9398 53.308L16.2699 54.7436L11.9631 52.9252C11.2932 52.638 10.7189 52.4466 10.2404 52.2552L10.8147 50.8196L11.8674 51.1068C11.5803 50.7239 11.3889 50.3411 11.3889 49.8626C11.3889 49.3841 11.3889 49.0012 11.5803 48.5227C12.0588 47.47 13.2073 47.0871 14.93 47.7571Z" fill="#00C194"></path><path d="M22.4908 41.919C22.0123 42.2061 21.438 42.3019 20.8638 42.2061C20.2896 42.1104 19.7153 41.919 19.1411 41.5362C18.5669 41.1534 18.184 40.6749 17.8969 40.1963C17.6098 39.7178 17.5141 39.1436 17.6098 38.5693C17.7055 37.9951 17.8969 37.4209 18.2797 36.8466C18.5669 36.4638 18.854 36.1767 19.2368 35.8896C19.6196 35.6025 20.0024 35.4111 20.2896 35.4111L20.9595 36.4638C20.5767 36.5595 20.2896 36.7509 20.0024 36.9423C19.7153 37.1338 19.5239 37.3252 19.3325 37.6123C19.0454 38.0908 18.854 38.5693 19.0454 39.0479C19.1411 39.5264 19.5239 40.0049 20.0981 40.3877C20.6724 40.7706 21.1509 40.962 21.7251 40.8663C22.2994 40.7706 22.5865 40.4834 22.9693 40.0049C23.1607 39.7178 23.2564 39.4307 23.3521 39.1436C23.4478 38.8565 23.4478 38.4736 23.4478 38.0908L24.692 38.3779C24.7877 38.7607 24.692 39.1436 24.5963 39.6221C24.5006 40.1006 24.3092 40.4834 24.0221 40.8663C23.4478 41.2491 23.065 41.6319 22.4908 41.919Z" fill="#00C194"></path><path d="M31.1044 27.1803L27.9461 30.3386C28.4246 30.8171 28.9988 31.0086 29.3817 31.0086C29.8602 31.0086 30.243 30.8171 30.7215 30.3386C31.2001 29.8601 31.4872 29.1901 31.5829 28.4245L32.7313 28.903C32.7313 29.2859 32.5399 29.6687 32.3485 30.1472C32.1571 30.53 31.87 30.9128 31.5829 31.2957C30.8172 32.0613 30.0516 32.4441 29.1902 32.4441C28.3289 32.4441 27.5632 32.0613 26.7976 31.3914C26.3191 30.9128 26.032 30.4343 25.8405 29.8601C25.6491 29.2859 25.6491 28.7116 25.7448 28.2331C25.8405 27.6589 26.1277 27.1803 26.6062 26.7975C27.2761 26.1276 27.9461 25.8405 28.7117 25.9362C29.4774 25.9362 30.243 26.319 31.0086 27.0846L31.1044 27.1803ZM26.989 28.6159C26.989 28.9987 27.0847 29.3816 27.3718 29.7644L29.4774 27.5632C29.0945 27.276 28.7117 27.0846 28.3289 27.0846C27.9461 27.0846 27.659 27.276 27.3718 27.5632C27.0847 27.8503 26.989 28.2331 26.989 28.6159Z" fill="#00C194"></path><path d="M51.3939 16.1742L51.9681 17.4184L46.4172 20.0981L45.8429 18.9497L47.1828 14.5472C47.3742 13.973 47.3742 13.5902 47.4699 13.2073C47.4699 12.8245 47.3742 12.5374 47.2785 12.1546C47.0871 11.7717 46.8 11.5803 46.5129 11.4846C46.2258 11.3889 45.8429 11.4846 45.4601 11.676C44.6945 12.0589 44.1202 12.7288 43.6417 13.5902L42.589 12.7288C42.7804 12.2503 43.0675 11.8675 43.546 11.3889C43.9288 11.0061 44.4074 10.6233 44.9816 10.3362C45.8429 9.95334 46.6086 9.85764 47.2785 9.95334C47.9485 10.1448 48.427 10.5276 48.8098 11.1975C49.0012 11.676 49.1926 12.1546 49.1926 12.7288C49.1926 13.2073 49.0969 13.8773 48.8098 14.6429L47.8528 17.8012L51.3939 16.1742Z" fill="#00C194"></path><path d="M58.7632 13.7815C57.9976 13.1116 57.4234 12.0588 57.0405 10.6233C56.6577 9.18768 56.6577 7.94351 57.0405 7.08216C57.4234 6.1251 58.0933 5.55087 59.1461 5.26375C60.1988 4.97664 61.1559 5.16805 61.8258 5.83799C62.5915 6.50793 63.1657 7.56069 63.5485 8.99627C63.9313 10.5276 63.9313 11.676 63.5485 12.6331C63.1657 13.5901 62.4958 14.1644 61.443 14.4515C60.4859 14.5472 59.5289 14.3558 58.7632 13.7815ZM62.2086 11.9631C62.3043 11.3889 62.2086 10.5276 61.9215 9.37909C61.6344 8.23063 61.2516 7.46498 60.8688 6.98645C60.4859 6.50793 60.0074 6.41222 59.4332 6.50793C58.8589 6.69934 58.4761 6.98645 58.3804 7.65639C58.2847 8.23063 58.3804 9.09198 58.6675 10.2404C58.9546 11.3889 59.3375 12.1546 59.7203 12.6331C60.1031 13.1116 60.5816 13.2073 61.1559 13.1116C61.7301 12.9202 62.1129 12.5374 62.2086 11.9631Z" fill="#00C194"></path><path d="M77.7129 10.6233L77.8086 11.9632L71.5877 12.2503L71.492 11.0061L74.4589 7.46502C74.8417 7.0822 75.0331 6.69938 75.2245 6.31655C75.416 5.93373 75.416 5.64662 75.416 5.26379C75.416 4.88097 75.2245 4.49815 75.0331 4.30674C74.746 4.11533 74.4589 4.01962 73.9804 4.01962C73.2147 4.01962 72.3534 4.40244 71.492 5.07238L70.8221 4.11533C71.2049 3.73251 71.5877 3.44539 72.162 3.25398C72.7362 3.06257 73.3104 2.87116 73.8847 2.87116C74.8417 2.77545 75.5117 2.96686 76.0859 3.44539C76.6601 3.82821 76.9472 4.49815 76.9472 5.26379C76.9472 5.74232 76.8515 6.31655 76.6601 6.79508C76.4687 7.27361 76.0859 7.84784 75.6074 8.42208L73.5018 10.9104L77.7129 10.6233Z" fill="#00C194"></path><path d="M89.1975 11.6761L91.2073 11.9632L91.0159 13.3031L85.3693 12.4417L85.5607 11.1018L87.5705 11.389L88.4318 5.55092L86.422 6.41226L86.6134 4.97668L89.3889 3.82822L90.346 3.92392L89.1975 11.6761Z" fill="#00C194"></path><path d="M106.233 17.5141L107.19 16.7484C107.573 17.5141 108.147 18.0883 108.913 18.5668C109.296 18.7583 109.583 18.854 109.774 18.854C109.966 18.854 110.157 18.7583 110.348 18.4711C110.444 18.2797 110.444 18.0883 110.348 17.9926C110.253 17.8012 110.061 17.6098 109.87 17.4184L109.009 16.6527C108.052 15.8871 107.86 15.0257 108.243 14.1644C108.434 13.7816 108.721 13.5902 109.009 13.3987C109.391 13.2073 109.774 13.2073 110.157 13.2073C110.636 13.2073 111.018 13.3987 111.497 13.5902C111.88 13.7816 112.263 14.0687 112.55 14.3558C112.837 14.6429 113.124 15.0257 113.315 15.4086L112.358 16.1742C111.975 15.4086 111.497 14.93 110.923 14.6429C110.636 14.4515 110.348 14.3558 110.061 14.4515C109.774 14.4515 109.679 14.6429 109.487 14.8343C109.391 15.0257 109.391 15.1214 109.487 15.3129C109.583 15.5043 109.679 15.6957 109.966 15.8871L110.827 16.6527C111.306 17.0356 111.688 17.5141 111.784 17.8969C111.88 18.2797 111.88 18.7583 111.593 19.1411C111.306 19.7153 110.923 20.0024 110.253 20.0981C109.679 20.1938 109.009 20.0024 108.243 19.6196C107.286 19.0454 106.616 18.3754 106.233 17.5141Z" fill="#00C194"></path><path d="M121.45 21.5337L119.728 23.8307C119.249 24.4049 119.345 24.9791 119.919 25.362C120.11 25.4577 120.302 25.5534 120.493 25.6491L119.728 26.7018C119.44 26.6061 119.153 26.4147 118.771 26.2233C118.196 25.7448 117.813 25.2663 117.813 24.692C117.718 24.1178 117.909 23.5436 118.388 22.8736L120.206 20.481L119.249 19.7153L120.015 18.7583L120.972 19.5239L121.929 18.2798L123.556 18.854L122.312 20.5767L123.652 21.6294L122.886 22.5865L121.45 21.5337Z" fill="#00C194"></path><path d="M133.605 31.3914L128.82 35.7939L127.767 34.6454L128.532 33.9755C128.15 34.0712 127.767 34.0712 127.288 33.8798C126.81 33.6884 126.523 33.4969 126.236 33.1141C125.853 32.7313 125.566 32.2528 125.47 31.6785C125.374 31.1043 125.47 30.6258 125.661 30.1472C125.853 29.6687 126.236 29.0945 126.714 28.7117C127.193 28.2331 127.767 27.946 128.245 27.7546C128.724 27.5632 129.298 27.5632 129.872 27.6589C130.447 27.7546 130.829 28.0417 131.212 28.5203C131.499 28.9031 131.786 29.2859 131.882 29.6687C131.978 30.0515 131.978 30.4344 131.882 30.9129L132.648 30.243L133.605 31.3914ZM128.628 33.1141C129.107 33.1141 129.585 32.827 130.064 32.3485C130.542 31.8699 130.829 31.3914 130.925 30.9129C131.021 30.4344 130.829 30.0515 130.447 29.573C130.064 29.1902 129.681 28.9988 129.202 28.9988C128.724 28.9988 128.245 29.2859 127.767 29.7644C127.288 30.243 127.001 30.7215 126.905 31.1043C126.81 31.5828 127.001 31.9657 127.384 32.4442C127.767 33.0184 128.15 33.2098 128.628 33.1141Z" fill="#00C194"></path><path d="M140.879 41.7276L139.634 42.4932C139.539 42.2061 139.443 41.919 139.347 41.7276C139.06 41.2491 138.677 40.9619 138.294 40.8662C137.912 40.7705 137.433 40.8662 136.955 41.1534L133.988 43.0675L133.126 41.7276L137.05 39.2393C137.625 38.8564 138.103 38.4736 138.582 38.1865L139.347 39.4307L138.486 40.1963C138.964 40.1006 139.347 40.1963 139.73 40.292C140.113 40.4834 140.4 40.7705 140.687 41.1534C140.687 41.3448 140.783 41.5362 140.879 41.7276Z" fill="#00C194"></path><path d="M144.132 51.3939L141.453 52.5424C140.783 52.8295 140.496 53.308 140.783 53.9779C140.878 54.1694 140.974 54.3608 141.166 54.5522L140.017 55.0307C139.826 54.8393 139.634 54.5522 139.443 54.1694C139.156 53.4994 139.156 52.9252 139.347 52.3509C139.539 51.7767 140.017 51.3939 140.783 51.1068L143.558 49.9583L143.08 48.8098L144.228 48.3313L144.707 49.4798L146.142 48.9055L147.291 50.1497L145.281 50.9154L145.951 52.5424L144.802 53.0209L144.132 51.3939Z" fill="#00C194"></path><path d="M146.238 66.2282L145.281 61.8258C144.611 62.0172 144.133 62.3043 143.845 62.6871C143.558 63.0699 143.558 63.5485 143.654 64.1227C143.845 64.7926 144.133 65.4626 144.802 65.9411L143.845 66.611C143.558 66.3239 143.271 66.0368 142.984 65.654C142.697 65.2712 142.601 64.7926 142.506 64.3141C142.314 63.2613 142.41 62.4 142.888 61.6343C143.367 60.8687 144.133 60.3902 145.09 60.1988C145.76 60.1031 146.334 60.1031 146.908 60.1988C147.482 60.3902 147.961 60.6773 148.344 61.0601C148.726 61.4429 149.013 62.0172 149.109 62.5914C149.301 63.4528 149.205 64.2184 148.726 64.8883C148.248 65.5583 147.578 65.9411 146.525 66.1325L146.238 66.2282ZM147.291 62.0172C147.004 61.8258 146.621 61.73 146.142 61.73L146.812 64.6969C147.291 64.5055 147.578 64.3141 147.769 64.027C147.961 63.7399 148.056 63.357 147.961 62.9742C147.769 62.4957 147.578 62.2086 147.291 62.0172Z" fill="#00C194"></path><path d="M153.512 79.8184L144.037 80.0098V78.3828H145.09C144.707 78.1914 144.42 77.9043 144.228 77.5215C144.037 77.1386 143.941 76.7558 143.941 76.2773C143.941 75.703 144.037 75.2245 144.324 74.746C144.611 74.2675 144.994 73.9803 145.472 73.6932C145.951 73.4061 146.621 73.3104 147.291 73.3104C147.961 73.3104 148.535 73.4061 149.109 73.5975C149.588 73.7889 150.066 74.1718 150.353 74.5546C150.641 75.0331 150.832 75.5116 150.832 76.0859C150.832 76.5644 150.736 76.9472 150.545 77.33C150.353 77.7129 150.066 78 149.779 78.1914L153.703 78.0957L153.512 79.8184ZM145.664 77.9043C146.047 78.1914 146.525 78.3828 147.291 78.2871C147.961 78.2871 148.535 78.0957 148.822 77.8086C149.205 77.5215 149.396 77.1386 149.396 76.5644C149.396 75.9902 149.205 75.6073 148.822 75.3202C148.439 75.0331 147.961 74.8417 147.291 74.9374C146.621 74.9374 146.047 75.1288 145.664 75.4159C145.281 75.7031 145.09 76.1816 145.09 76.6601C145.09 77.2343 145.281 77.6172 145.664 77.9043Z" fill="#00C194"></path><path d="M141.357 98.0982C141.931 97.6196 142.601 97.3325 143.463 97.2368C144.228 97.1411 145.09 97.2368 146.047 97.6196C146.908 97.9067 147.674 98.3853 148.248 98.9595C148.822 99.5337 149.109 100.204 149.301 100.969C149.396 101.735 149.396 102.501 149.014 103.362C148.726 104.223 148.248 104.893 147.674 105.372C147.099 105.85 146.429 106.137 145.664 106.233C144.898 106.329 144.037 106.233 143.175 105.85C142.218 105.563 141.548 105.085 140.974 104.51C140.4 103.936 140.113 103.266 139.921 102.501C139.73 101.735 139.826 100.969 140.113 100.108C140.304 99.2466 140.783 98.5767 141.357 98.0982ZM141.453 102.692C141.836 103.362 142.601 103.84 143.558 104.223C144.611 104.606 145.472 104.606 146.142 104.415C146.812 104.128 147.387 103.649 147.674 102.788C147.961 102.022 147.865 101.256 147.482 100.586C147.099 99.9166 146.429 99.438 145.377 99.0552C144.324 98.6724 143.463 98.6724 142.793 98.8638C142.123 99.1509 141.548 99.6294 141.261 100.491C140.974 101.352 141.07 102.022 141.453 102.692Z" fill="#00C194"></path><path d="M137.816 119.058L132.265 115.612L133.126 114.272L133.988 114.847C133.796 114.464 133.701 114.081 133.701 113.698C133.701 113.315 133.892 112.933 134.083 112.55C134.945 111.21 136.093 111.018 137.624 111.975L140.974 114.081L140.113 115.421L136.763 113.315C136.38 113.028 135.997 112.933 135.71 113.028C135.423 113.028 135.136 113.315 134.945 113.602C134.658 113.985 134.658 114.368 134.753 114.847C134.849 115.229 135.136 115.612 135.615 115.899L138.677 117.814L137.816 119.058Z" fill="#00C194"></path><path d="M129.872 128.82L128.82 127.863C129.107 127.767 129.298 127.575 129.49 127.384C129.872 127.001 130.064 126.523 129.968 126.14C129.968 125.757 129.681 125.279 129.298 124.991L126.714 122.599L127.767 121.45L131.212 124.609C131.691 125.087 132.169 125.47 132.648 125.757L131.595 126.905L130.638 126.236C130.829 126.618 130.925 127.097 130.829 127.48C130.734 127.863 130.542 128.245 130.255 128.628C130.16 128.532 130.064 128.724 129.872 128.82Z" fill="#00C194"></path><path d="M106.137 137.816L107.669 136.955L110.157 139.06C110.348 139.252 110.636 139.347 110.827 139.347C111.114 139.347 111.305 139.252 111.688 139.06L113.124 138.294L111.305 134.945L112.741 134.179L117.144 142.218L113.698 144.133C112.741 144.611 111.975 144.802 111.305 144.707C110.636 144.611 110.061 144.133 109.678 143.367C109.391 142.793 109.296 142.314 109.391 141.74C109.487 141.166 109.678 140.687 110.157 140.304C109.583 140.496 109.104 140.304 108.53 139.826L106.137 137.816ZM111.975 140.4C111.401 140.687 111.114 141.07 110.923 141.357C110.731 141.74 110.827 142.123 111.018 142.506C111.21 142.888 111.497 143.175 111.88 143.175C112.263 143.271 112.741 143.08 113.315 142.793L115.134 141.836L113.794 139.347L111.975 140.4Z" fill="#00C194"></path><path d="M95.227 144.994L99.5337 143.654C99.3423 142.984 98.9595 142.505 98.5767 142.314C98.1939 142.123 97.7153 142.027 97.0454 142.218C96.3755 142.41 95.8012 142.888 95.3227 143.463L94.5571 142.505C94.7485 142.218 95.1313 141.836 95.5141 141.644C95.8969 141.357 96.2798 141.166 96.7583 141.07C97.811 140.783 98.6724 140.783 99.438 141.166C100.204 141.548 100.778 142.314 101.065 143.271C101.256 143.941 101.256 144.515 101.161 145.09C101.065 145.664 100.778 146.142 100.395 146.621C100.012 147.004 99.5337 147.291 98.9595 147.482C98.0982 147.769 97.3325 147.674 96.6626 147.291C95.9926 146.908 95.5141 146.238 95.227 145.185V144.994ZM99.5337 145.759C99.7252 145.472 99.8209 144.994 99.7251 144.515L96.854 145.377C97.0454 145.855 97.3325 146.142 97.6196 146.334C97.9068 146.525 98.2896 146.525 98.6724 146.429C99.0552 146.334 99.3423 146.142 99.5337 145.759Z" fill="#00C194"></path><path d="M82.0196 150.449L81.3497 143.941L82.9767 143.75L83.0724 144.802C83.2638 144.42 83.4552 144.132 83.838 143.845C84.2208 143.654 84.6037 143.463 85.0822 143.463C85.6564 143.367 86.135 143.463 86.6135 143.75C87.092 143.941 87.4748 144.324 87.762 144.802C88.0491 145.281 88.2405 145.855 88.3362 146.525C88.4319 147.195 88.3362 147.769 88.1448 148.344C87.9534 148.918 87.6662 149.301 87.2834 149.683C86.9006 149.971 86.4221 150.162 85.8478 150.258C85.3693 150.258 84.9865 150.258 84.6037 150.066C84.2208 149.875 83.9337 149.683 83.6466 149.301L83.7423 150.258L82.0196 150.449ZM83.5509 145.472C83.2638 145.855 83.1681 146.429 83.2638 147.099C83.3595 147.769 83.5509 148.344 83.838 148.631C84.1251 149.013 84.6037 149.109 85.1779 149.109C85.7521 149.013 86.135 148.822 86.3264 148.439C86.6135 148.056 86.7092 147.482 86.6135 146.812C86.5178 146.142 86.3264 145.664 86.0393 145.281C85.7521 144.994 85.2736 144.802 84.6994 144.898C84.2208 144.802 83.838 145.09 83.5509 145.472Z" fill="#00C194"></path><path d="M74.076 143.845L73.4061 153.32L71.7791 153.224L72.449 143.75L74.076 143.845Z" fill="#00C194"></path><path d="M56.2748 140.304L52.8294 148.822L47.0871 146.525L47.5656 145.281L51.7767 147.004L52.7337 144.611L48.8098 142.984L49.2883 141.74L53.2122 143.367L54.1693 140.879L49.9583 139.156L50.4368 137.912L56.2748 140.304Z" fill="#00C194"></path><path d="M44.4074 135.615L43.4504 136.285C43.1632 135.423 42.589 134.849 41.8234 134.371C41.5362 134.179 41.2491 134.083 40.962 134.083C40.6749 134.083 40.4835 134.179 40.3878 134.371C40.2921 134.562 40.2921 134.753 40.2921 134.849C40.3878 135.04 40.4835 135.232 40.7706 135.519L41.5362 136.285C42.3976 137.146 42.589 138.007 42.0148 138.773C41.8234 139.06 41.5362 139.347 41.1534 139.443C40.7706 139.539 40.3878 139.634 40.005 139.539C39.6221 139.443 39.1436 139.252 38.6651 138.964C38.2823 138.677 37.8994 138.39 37.6123 138.103C37.3252 137.72 37.1338 137.337 36.9424 136.955L37.8994 136.285C38.1866 137.05 38.6651 137.625 39.2393 138.007C39.5264 138.199 39.8136 138.294 40.1007 138.294C40.3878 138.294 40.5792 138.199 40.6749 138.007C40.7706 137.816 40.7706 137.72 40.7706 137.529C40.7706 137.337 40.5792 137.146 40.3878 136.955L39.6221 136.189C39.1436 135.71 38.8565 135.232 38.7608 134.849C38.6651 134.466 38.7608 133.988 39.0479 133.605C39.335 133.126 39.8135 132.839 40.3878 132.744C40.962 132.744 41.632 132.935 42.3019 133.413C43.4504 133.988 44.1203 134.753 44.4074 135.615Z" fill="#00C194"></path><path d="M29.6687 130.255L31.6785 128.054C32.157 127.48 32.157 127.001 31.6785 126.523C31.4871 126.427 31.3914 126.236 31.1042 126.14L31.9656 125.183C32.2527 125.278 32.5398 125.47 32.8269 125.757C33.4012 126.236 33.6883 126.81 33.6883 127.384C33.6883 127.958 33.4012 128.532 32.9227 129.107L30.9128 131.308L31.8699 132.169L31.0085 133.031L30.0515 132.169L28.9987 133.318L27.4674 132.648L28.903 131.117L27.6588 129.968L28.5202 129.107L29.6687 130.255Z" fill="#00C194"></path><path d="M18.3754 119.345L23.5435 115.421L24.5006 116.665L23.6392 117.335C24.022 117.239 24.4049 117.335 24.7877 117.526C25.1705 117.718 25.5533 118.005 25.8405 118.388C26.2233 118.866 26.4147 119.345 26.4147 119.823C26.4147 120.302 26.319 120.876 26.1276 121.355C25.8405 121.833 25.4576 122.312 24.9791 122.694C24.4049 123.077 23.9263 123.364 23.3521 123.46C22.7779 123.556 22.2994 123.556 21.7251 123.364C21.2466 123.173 20.7681 122.886 20.4809 122.407C20.1938 122.025 20.0024 121.642 20.0024 121.259C19.9067 120.876 20.0024 120.398 20.1938 120.11L19.4282 120.685L18.3754 119.345ZM23.4478 118.005C22.9693 118.005 22.4908 118.196 21.9165 118.579C21.3423 118.962 21.0552 119.44 20.9595 119.919C20.8638 120.398 20.9595 120.78 21.2466 121.259C21.5337 121.642 22.0122 121.929 22.4908 121.929C22.9693 121.929 23.4478 121.737 24.022 121.355C24.5963 120.972 24.8834 120.493 24.9791 120.015C25.0748 119.536 24.9791 119.153 24.692 118.675C24.3092 118.292 23.9263 118.005 23.4478 118.005Z" fill="#00C194"></path><path d="M14.1644 109.679L16.7485 108.339C17.4184 107.956 17.6098 107.477 17.3227 106.903C17.227 106.712 17.1313 106.52 16.9399 106.329L18.0884 105.755C18.2798 105.946 18.4712 106.233 18.6626 106.616C18.9497 107.286 19.0454 107.86 18.854 108.434C18.6626 109.009 18.1841 109.391 17.5141 109.774L14.8344 111.114L15.4086 112.263L14.3559 112.837L13.7816 111.688L12.346 112.358L11.1019 111.114L13.016 110.157L12.2503 108.626L13.3988 108.147L14.1644 109.679Z" fill="#00C194"></path><path d="M11.0061 95.0356L12.346 99.3423C13.0159 99.1509 13.4945 98.7681 13.6859 98.3853C13.8773 98.0024 13.973 97.5239 13.7816 96.854C13.5902 96.184 13.2073 95.6098 12.5374 95.1313L13.4945 94.3656C13.7816 94.557 14.1644 94.9399 14.3558 95.3227C14.6429 95.7055 14.8343 96.0883 14.93 96.5669C15.2172 97.6196 15.2172 98.481 14.8343 99.2466C14.4515 100.012 13.6859 100.586 12.7288 100.874C12.0589 101.065 11.4846 101.065 10.9104 100.969C10.3362 100.874 9.85765 100.586 9.47482 100.204C9.092 99.8208 8.80489 99.3423 8.61348 98.7681C8.32636 97.9067 8.42206 97.1411 8.80489 96.4712C9.18771 95.8012 9.85765 95.3227 10.9104 95.0356H11.0061ZM10.2405 99.3423C10.5276 99.5337 11.0061 99.6294 11.4846 99.5337L10.6233 96.6626C10.1448 96.854 9.85765 97.1411 9.66624 97.4282C9.47483 97.7153 9.47482 98.0982 9.57053 98.481C9.66624 98.8638 9.85765 99.1509 10.2405 99.3423Z" fill="#00C194"></path></svg>