<svg xmlns="http://www.w3.org/2000/svg" width="200" height="117" viewBox="0 0 200 117" fill="none"><path fill-rule="evenodd" clip-rule="evenodd" d="M38.4177 109.991L39.1242 108.268L37.0376 103.857H38.5921L39.8485 106.502L40.9217 103.857H42.443L39.939 109.991H38.4177Z" fill="#00C194"></path><path fill-rule="evenodd" clip-rule="evenodd" d="M49.4605 103.899C49.8822 103.899 50.2775 103.978 50.6485 104.139C51.0194 104.299 51.3418 104.515 51.62 104.791C51.8982 105.063 52.1146 105.387 52.2759 105.756C52.437 106.126 52.5165 106.522 52.5165 106.943C52.5165 107.363 52.437 107.758 52.2759 108.129C52.1146 108.499 51.8982 108.82 51.62 109.096C51.3418 109.368 51.0194 109.586 50.6485 109.747C50.2775 109.907 49.8822 109.987 49.4605 109.987C49.0387 109.987 48.6434 109.907 48.2725 109.747C47.9015 109.586 47.5792 109.371 47.3053 109.096C47.0316 108.822 46.8152 108.499 46.6539 108.129C46.4927 107.759 46.4133 107.363 46.4133 106.943C46.4133 106.522 46.4927 106.129 46.6539 105.756C46.8152 105.387 47.0316 105.066 47.3053 104.791C47.5792 104.517 47.9037 104.299 48.2725 104.139C48.6434 103.981 49.0387 103.899 49.4605 103.899ZM49.4649 108.582C49.6923 108.582 49.9065 108.541 50.1052 108.455C50.304 108.369 50.4784 108.252 50.6286 108.102C50.7787 107.953 50.8958 107.779 50.9818 107.581C51.068 107.383 51.11 107.169 51.11 106.943C51.11 106.716 51.068 106.502 50.9818 106.304C50.8958 106.106 50.7787 105.932 50.6286 105.783C50.4784 105.633 50.304 105.517 50.1052 105.43C49.9065 105.345 49.6923 105.303 49.4649 105.303C49.2375 105.303 49.0232 105.345 48.8246 105.43C48.6258 105.517 48.4514 105.633 48.3012 105.783C48.151 105.932 48.034 106.106 47.9479 106.304C47.8618 106.502 47.8198 106.716 47.8198 106.943C47.8198 107.169 47.8618 107.383 47.9479 107.581C48.034 107.779 48.151 107.953 48.3012 108.102C48.4514 108.252 48.6258 108.369 48.8246 108.455C49.0232 108.541 49.2375 108.582 49.4649 108.582Z" fill="#00C194"></path><path fill-rule="evenodd" clip-rule="evenodd" d="M58.8163 109.991C58.5049 109.991 58.2113 109.934 57.9353 109.822C57.6571 109.709 57.4119 109.547 57.1955 109.337C56.9748 109.118 56.8026 108.869 56.6833 108.591C56.5641 108.314 56.5022 108.019 56.4955 107.704V103.899H57.8999V107.696C57.8999 107.94 57.9905 108.151 58.1737 108.334C58.3571 108.506 58.5735 108.591 58.8229 108.591C58.9444 108.591 59.0614 108.567 59.1719 108.516C59.2822 108.465 59.3794 108.4 59.4633 108.319C59.5472 108.235 59.6113 108.138 59.6554 108.028C59.6995 107.918 59.7216 107.799 59.7216 107.671V103.899H61.126V107.662C61.1326 107.978 61.0753 108.277 60.956 108.558C60.8368 108.84 60.6734 109.087 60.4658 109.296C60.2582 109.505 60.0131 109.672 59.7349 109.797C59.4545 109.921 59.1564 109.987 58.8406 109.993H58.8163V109.991Z" fill="#00C194"></path><path fill-rule="evenodd" clip-rule="evenodd" d="M67.3684 108.417C67.2955 108.429 67.2249 108.438 67.152 108.442C67.0791 108.448 67.004 108.452 66.9268 108.459V109.993H65.5224V103.932H66.9268C67.2757 103.936 67.6024 104 67.9072 104.124C68.2119 104.244 68.4791 104.407 68.7087 104.612C68.9383 104.817 69.1194 105.054 69.2497 105.325C69.38 105.594 69.4462 105.884 69.4462 106.194C69.4462 106.518 69.3778 106.822 69.2386 107.101C69.0996 107.38 68.9053 107.621 68.6557 107.826L70.0027 109.993H68.3488L67.3684 108.417ZM66.9268 107.049C67.0769 107.042 67.2182 107.017 67.3551 106.969C67.492 106.923 67.609 106.859 67.7128 106.783C67.8144 106.705 67.8962 106.615 67.9535 106.514C68.0109 106.412 68.0418 106.302 68.0418 106.185C68.0418 106.069 68.0131 105.961 67.9535 105.863C67.8939 105.763 67.8144 105.675 67.7128 105.595C67.6112 105.519 67.492 105.458 67.3551 105.409C67.2182 105.362 67.0769 105.336 66.9268 105.329V107.049Z" fill="#00C194"></path><path fill-rule="evenodd" clip-rule="evenodd" d="M79.0891 103.884V105.283H77.9166V109.991H76.51V105.283H75.3463V103.884H79.0891Z" fill="#00C194"></path><path fill-rule="evenodd" clip-rule="evenodd" d="M86.7336 109.991L86.4929 109.254H84.5719L84.3223 109.991H82.834L84.9119 103.907H86.2434L88.2153 109.991H86.7336ZM85.0555 107.854H86.0447L85.5633 106.379L85.0555 107.854Z" fill="#00C194"></path><path fill-rule="evenodd" clip-rule="evenodd" d="M97.1493 106.584V109.991H95.7361V109.841C95.5816 109.896 95.4204 109.936 95.257 109.962C95.0935 109.987 94.9301 110 94.7712 110C94.3781 110 93.9917 109.925 93.6163 109.776C93.2387 109.626 92.9009 109.404 92.6028 109.104C92.3025 108.805 92.0795 108.471 91.9337 108.096C91.7858 107.724 91.713 107.341 91.713 106.948C91.713 106.556 91.7858 106.171 91.9337 105.796C92.0817 105.42 92.3047 105.083 92.6028 104.785C92.9031 104.487 93.2409 104.264 93.6163 104.114C93.9917 103.965 94.3781 103.89 94.7712 103.89C95.1642 103.89 95.5506 103.965 95.9261 104.114C96.3036 104.264 96.6414 104.487 96.9395 104.785L95.9415 105.78C95.7803 105.62 95.597 105.501 95.3916 105.42C95.1863 105.341 94.9787 105.299 94.769 105.299C94.5592 105.299 94.3495 105.338 94.1462 105.42C93.9409 105.499 93.7576 105.62 93.5965 105.78C93.4352 105.941 93.3138 106.124 93.2299 106.329C93.146 106.534 93.104 106.741 93.104 106.949C93.104 107.159 93.146 107.367 93.2299 107.57C93.3138 107.775 93.4352 107.957 93.5965 108.118C93.74 108.261 93.9034 108.374 94.0823 108.455C94.2633 108.534 94.4488 108.582 94.6387 108.596C94.8308 108.609 95.0207 108.591 95.2084 108.543C95.3961 108.493 95.5705 108.41 95.7317 108.294V107.988H94.5084V106.589H97.1493V106.584Z" fill="#00C194"></path><path fill-rule="evenodd" clip-rule="evenodd" d="M105.004 109.991H101.369V103.899H102.773V108.591H105.004V109.991Z" fill="#00C194"></path><path fill-rule="evenodd" clip-rule="evenodd" d="M110.537 109.991H109.131V103.899H110.537V109.991Z" fill="#00C194"></path><path fill-rule="evenodd" clip-rule="evenodd" d="M118.44 103.907H119.847V109.991H118.323L116.329 106.443V109.991H114.923V103.923H116.453L118.44 107.464V103.907Z" fill="#00C194"></path><path fill-rule="evenodd" clip-rule="evenodd" d="M127.999 105.307H125.489V106.227H127.524V107.629H125.489V108.591H127.999V109.991H124.081V103.916L127.999 103.907V105.307Z" fill="#00C194"></path><path fill-rule="evenodd" clip-rule="evenodd" d="M136.716 103.907H138.123V109.991H136.716V107.696H134.955V109.991H133.548V103.907H134.955V106.295H136.716V103.907Z" fill="#00C194"></path><path fill-rule="evenodd" clip-rule="evenodd" d="M146.209 105.307H143.699V106.227H145.734V107.629H143.699V108.591H146.209V109.991H142.292V103.916L146.209 103.907V105.307Z" fill="#00C194"></path><path fill-rule="evenodd" clip-rule="evenodd" d="M152.333 108.417C152.26 108.429 152.189 108.438 152.116 108.442C152.043 108.448 151.968 108.452 151.891 108.459V109.993H150.487V103.932H151.891C152.24 103.936 152.567 104 152.872 104.124C153.176 104.244 153.443 104.407 153.673 104.612C153.902 104.817 154.083 105.054 154.214 105.325C154.344 105.594 154.411 105.884 154.411 106.194C154.411 106.518 154.342 106.822 154.203 107.101C154.064 107.38 153.869 107.621 153.62 107.826L154.967 109.993H153.313L152.333 108.417ZM151.893 107.049C152.043 107.042 152.185 107.017 152.322 106.969C152.459 106.923 152.577 106.859 152.679 106.783C152.781 106.705 152.863 106.615 152.92 106.514C152.977 106.412 153.009 106.302 153.009 106.185C153.009 106.069 152.98 105.961 152.92 105.863C152.86 105.763 152.781 105.675 152.679 105.595C152.577 105.519 152.459 105.458 152.322 105.409C152.185 105.362 152.043 105.336 151.893 105.329V107.049Z" fill="#00C194"></path><path fill-rule="evenodd" clip-rule="evenodd" d="M162.964 105.307H160.454V106.227H162.49V107.629H160.454V108.591H162.964V109.991H159.047V103.916L162.964 103.907V105.307Z" fill="#00C194"></path><path fill-rule="evenodd" clip-rule="evenodd" d="M31.6145 76.7891H36.3243V97.173H31.6145V89.4801H25.7077V97.173H21V76.7891H25.7077V84.7876H31.6145V76.7891Z" fill="#00C194"></path><path fill-rule="evenodd" clip-rule="evenodd" d="M51.5074 81.4816H43.0945V84.5653H49.9197V89.2578H43.0945V92.48H51.5074V97.173H38.3845V76.8156L51.5074 76.7891V81.4816Z" fill="#00C194"></path><path fill-rule="evenodd" clip-rule="evenodd" d="M70.4531 76.6219L64.4359 86.5638L70.9831 97.173H65.4385L61.7046 91.1176L58.028 97.173H52.5386L58.9179 86.5924L52.7904 76.6219H58.3062L61.678 82.065L64.9372 76.6219H70.4531Z" fill="#00C194"></path><path fill-rule="evenodd" clip-rule="evenodd" d="M84.1059 97.173L83.2977 94.701H76.8611L76.0242 97.173H71.0361L78.0005 76.7891H82.4587L89.061 97.173H84.1059ZM78.4774 90.0084H81.7919L80.1777 85.0649L78.4774 90.0084Z" fill="#00C194"></path><path fill-rule="evenodd" clip-rule="evenodd" d="M105.335 76.7891H110.045V97.173H105.335V89.4801H99.428V97.173H94.7203V76.7891H99.428V84.7876H105.335V76.7891Z" fill="#00C194"></path><path fill-rule="evenodd" clip-rule="evenodd" d="M121.229 76.7606C122.64 76.7606 123.965 77.0291 125.208 77.5661C126.447 78.1031 127.536 78.8295 128.463 79.7473C129.392 80.6629 130.121 81.7414 130.66 82.9827C131.198 84.2241 131.468 85.5469 131.468 86.9534C131.468 88.3598 131.198 89.6848 130.66 90.9239C130.121 92.1653 129.392 93.2438 128.463 94.1594C127.533 95.0754 126.447 95.8034 125.208 96.3385C123.963 96.8753 122.64 97.1442 121.229 97.1442C119.818 97.1442 118.493 96.8753 117.25 96.3385C116.011 95.8017 114.929 95.0754 114.009 94.1594C113.09 93.2438 112.366 92.1653 111.826 90.9239C111.288 89.6826 111.019 88.3598 111.019 86.9534C111.019 85.5469 111.288 84.222 111.826 82.9827C112.366 81.7436 113.09 80.6629 114.009 79.7473C114.927 78.8316 116.009 78.1031 117.25 77.5661C118.496 77.0291 119.818 76.7606 121.229 76.7606ZM121.244 92.4514C122.007 92.4514 122.721 92.3083 123.391 92.02C124.06 91.7339 124.645 91.34 125.146 90.8403C125.648 90.3407 126.043 89.7574 126.329 89.0905C126.616 88.4237 126.762 87.7105 126.762 86.9511C126.762 86.1918 126.619 85.4786 126.329 84.8118C126.043 84.1449 125.648 83.5616 125.146 83.062C124.645 82.5623 124.06 82.1684 123.391 81.8823C122.721 81.5961 122.007 81.4508 121.244 81.4508C120.482 81.4508 119.767 81.5939 119.098 81.8823C118.429 82.1684 117.844 82.5623 117.342 83.062C116.841 83.5616 116.446 84.1449 116.159 84.8118C115.872 85.4786 115.727 86.1918 115.727 86.9511C115.727 87.7105 115.87 88.4237 116.159 89.0905C116.446 89.7574 116.841 90.3407 117.342 90.8403C117.844 91.34 118.429 91.7339 119.098 92.02C119.767 92.3083 120.482 92.4514 121.244 92.4514Z" fill="#00C194"></path><path fill-rule="evenodd" clip-rule="evenodd" d="M140.663 97.173C139.622 97.173 138.638 96.9836 137.708 96.6021C136.778 96.2242 135.952 95.6821 135.229 94.9786C134.487 94.2386 133.914 93.4045 133.515 92.4779C133.115 91.5512 132.905 90.5608 132.888 89.5065V76.7606H137.595V89.4801C137.595 90.2944 137.903 91.0076 138.514 91.6195C139.128 92.1939 139.852 92.48 140.687 92.48C141.096 92.48 141.486 92.3964 141.857 92.2292C142.228 92.0618 142.553 91.8396 142.833 91.5623C143.111 91.2849 143.325 90.9614 143.474 90.5894C143.621 90.2196 143.696 89.8212 143.696 89.3942V76.7583H148.409V89.3657C148.427 90.4199 148.236 91.4214 147.836 92.3656C147.437 93.3098 146.889 94.133 146.194 94.8372C145.499 95.5416 144.679 96.1011 143.743 96.5166C142.804 96.933 141.806 97.1503 140.748 97.1704H140.663V97.173Z" fill="#00C194"></path><path fill-rule="evenodd" clip-rule="evenodd" d="M157.296 97.5623C156.647 97.5623 156 97.4742 155.36 97.2978C154.719 97.1224 154.11 96.8492 153.536 96.4791C152.534 95.8323 151.752 94.9934 151.195 93.9658C150.639 92.9379 150.358 91.8132 150.358 90.5917H155.066C155.066 91.1463 155.187 91.5777 155.428 91.8836C155.669 92.1896 155.883 92.3964 156.069 92.5087C156.402 92.731 156.764 92.8521 157.155 92.8696C157.546 92.8873 157.926 92.8146 158.297 92.6474C158.557 92.5373 158.765 92.3964 158.924 92.2314C159.081 92.0641 159.202 91.9034 159.286 91.7449C159.37 91.5865 159.42 91.4346 159.439 91.2872C159.456 91.1397 159.467 91.0186 159.467 90.9262C159.467 90.8337 159.458 90.7126 159.439 90.5652C159.42 90.4178 159.368 90.2593 159.286 90.092C159.202 89.9247 159.081 89.7641 158.924 89.6056C158.765 89.4471 158.557 89.3041 158.297 89.1742C158.093 89.0818 157.875 88.9981 157.643 88.9232C157.412 88.8484 157.164 88.7648 156.905 88.6724C156.442 88.5249 155.958 88.3576 155.457 88.1727C154.956 87.9879 154.454 87.7369 153.953 87.4222C153.304 87.015 152.755 86.5066 152.31 85.8947C151.864 85.2828 151.544 84.6269 151.35 83.9226C151.155 83.2183 151.089 82.4919 151.155 81.7436C151.22 80.9931 151.429 80.2755 151.783 79.5911C152.116 78.9616 152.535 78.4158 153.036 77.9535C153.538 77.4913 154.094 77.1259 154.708 76.8574C155.323 76.5889 155.98 76.426 156.687 76.371C157.393 76.316 158.106 76.3798 158.834 76.5647C159.54 76.732 160.176 76.9961 160.745 77.357C161.321 77.718 161.814 78.1538 162.227 78.6623C162.645 79.1706 162.964 79.7407 163.183 80.3702C163.406 80.9997 163.517 81.6578 163.517 82.3423H158.831C158.831 81.9175 158.697 81.6204 158.427 81.4531C158.158 81.2858 157.921 81.1758 157.716 81.1207C157.679 81.1207 157.59 81.1076 157.451 81.0789C157.312 81.0503 157.153 81.0503 156.979 81.0789C156.801 81.1076 156.621 81.1714 156.435 81.2726C156.25 81.3739 156.101 81.5367 155.989 81.7591C155.841 82.0562 155.812 82.3643 155.905 82.6901C155.998 83.0136 156.183 83.2689 156.462 83.4538C156.722 83.6013 157.009 83.7355 157.325 83.8566C157.641 83.9777 157.975 84.0921 158.327 84.2044C158.643 84.2968 158.964 84.3981 159.288 84.5103C159.612 84.6203 159.937 84.7502 160.273 84.8999C161.49 85.4545 162.446 86.2689 163.139 87.343C163.83 88.4171 164.179 89.61 164.179 90.9262C164.179 92.2226 163.83 93.4067 163.139 94.481C162.448 95.5547 161.49 96.3691 160.273 96.9242C159.794 97.146 159.301 97.3092 158.8 97.4104C158.298 97.5091 157.797 97.5623 157.296 97.5623Z" fill="#00C194"></path><path fill-rule="evenodd" clip-rule="evenodd" d="M179 81.4816H170.585V84.5653H177.412V89.2578H170.585V92.48H179V97.173H165.877V76.8156L179 76.7891V81.4816Z" fill="#00C194"></path><path fill-rule="evenodd" clip-rule="evenodd" d="M125.128 21.4628C125.132 31.1009 125.132 40.7412 125.128 50.3794C116.753 55.204 108.378 60.0242 99.9978 64.8422C91.6224 60.022 83.2426 55.2018 74.8672 50.3794V21.4628C83.2448 16.6425 91.6246 11.8246 99.9978 7L125.128 21.4628ZM100.344 14.8443L118.484 25.2859V46.5563L99.9978 57.1959L81.5114 46.5563V25.2859C87.6743 21.7401 93.8371 18.1943 99.9978 14.6463L100.344 14.8443ZM99.9978 16.2353L82.8959 26.076V45.7661L99.9978 55.6067L117.1 45.7661V26.076L99.9978 16.2353ZM100.344 11.0212L121.808 23.3732V48.4712C114.539 52.6553 107.269 56.8393 100 61.0212L78.1904 48.4689V23.3732C85.4617 19.1914 92.7309 15.0094 99.9978 10.8231L100.344 11.0212ZM120.423 24.1656L99.9978 12.4122L79.5749 24.1656V47.6766L99.9978 59.4299L120.423 47.6766V24.1656ZM123.744 22.2507L99.9978 8.58692L76.2517 22.2507V49.5893L99.9978 63.2553L123.744 49.5893V22.2507Z" fill="#00C194"></path><path fill-rule="evenodd" clip-rule="evenodd" d="M95.2702 31.376H99.0859V35.1793H95.2702V31.376ZM100.916 36.6629H104.732V40.4662H100.916V36.6629ZM95.2702 36.6629H99.0859V40.4662H95.2702V36.6629ZM100.916 31.376H104.732V35.1793H100.916V31.376Z" fill="#00C194"></path></svg>