<svg xmlns="http://www.w3.org/2000/svg" width="43" height="37" viewBox="0 0 43 37" fill="none"><g clip-path="url(#clip0)"><path d="M6.3 14.4C6 14.4 5.7 14.2 5.5 14C5.2 13.6 5.4 13 5.8 12.7L15.7 6.6C16.1 6.3 16.7 6.5 17 6.9C17.3 7.3 17.1 7.9 16.7 8.2L6.8 14.3C6.6 14.4 6.4 14.4 6.3 14.4Z" fill="#00C194"></path><path d="M36.1 14.4C35.9 14.4 35.8 14.4 35.6 14.3L25.7 8.2C25.3 7.9 25.1 7.4 25.4 6.9C25.7 6.5 26.2 6.3 26.7 6.6L36.6 12.7C37 13 37.2 13.5 36.9 14C36.7 14.3 36.4 14.4 36.1 14.4Z" fill="#00C194"></path><path d="M36.1 36.6H6.3C5.8 36.6 5.4 36.2 5.4 35.7V14.4H0.900001C0.500001 14.4 0.100001 14.1 5.15953e-07 13.7C-0.0999995 13.3 0.100001 12.9 0.400001 12.7L20.7 0.099997C21 -0.100003 21.4 -0.100003 21.7 0.099997L28.8 4.5V3.4C28.8 2.9 29.2 2.5 29.7 2.5H34.8C35.3 2.5 35.7 2.9 35.7 3.4V8.9L41.9 12.7C42.3 12.9 42.4 13.3 42.3 13.7C42.2 14.1 41.8 14.4 41.4 14.4H37V35.7C37 36.2 36.6 36.6 36.1 36.6ZM7.2 34.8H35.2V13.5C35.2 13 35.6 12.6 36.1 12.6H38.2L34.4 10.2C34.1 10 34 9.7 34 9.4V4.3H30.7V6.2C30.7 6.5 30.5 6.9 30.2 7C29.9 7.2 29.5 7.2 29.3 7L21.3 2L4.3 12.5H6.4C6.9 12.5 7.3 12.9 7.3 13.4V34.8H7.2Z" fill="#00C194"></path><path d="M25.7 36.6H16.7C16.2 36.6 15.8 36.2 15.8 35.7V22.1C15.8 21.6 16.2 21.2 16.7 21.2H25.7C26.2 21.2 26.6 21.6 26.6 22.1V35.7C26.6 36.2 26.2 36.6 25.7 36.6ZM17.6 34.8H24.7V23H17.6V34.8Z" fill="#00C194"></path></g><defs><clipPath><rect width="43" height="37" fill="white"></rect></clipPath></defs></svg>