<svg xmlns="http://www.w3.org/2000/svg" width="200" height="117" viewBox="0 0 200 117" fill="none"><path fill-rule="evenodd" clip-rule="evenodd" d="M111.007 68.8109H107.52V47.2215L111.007 43.3403V68.8109ZM80.7445 69.7872H81.2316V36.8063L87.3561 29.9896L89.0208 31.8422V69.7893H94.4567V36.4323C92.9717 34.7754 91.4844 33.1207 89.995 31.466V8.90475L102.246 17.7566V32.0596C100.759 33.51 99.2715 34.9624 97.7842 36.4149V69.7893H103.22V32.4706L111.009 24.8733V41.8791C109.522 43.5338 108.035 45.1885 106.548 46.8454C106.548 54.1664 106.543 61.4876 106.548 68.8087V69.7872H111.983V42.2574L113.648 40.4049L119.772 47.2215V69.7872H120.747V46.8475C118.383 44.2122 116.014 41.5812 113.648 38.948L111.983 40.7984V22.5642L103.22 31.1095V17.2587C98.4877 13.8362 93.7532 10.4181 89.0208 7V30.3832L87.3561 28.5328C84.9898 31.1659 82.6215 33.797 80.2574 36.4323V69.7893H80.7445V69.7872ZM89.995 32.925L93.4826 36.8063V68.8109H89.995V32.925ZM102.244 33.4229V68.8109H98.7562V36.8236L102.244 33.4229Z" fill="#00C194"></path><path fill-rule="evenodd" clip-rule="evenodd" d="M34.4251 90.4307C34.213 90.4633 34.0008 90.4872 33.7887 90.5046C33.5765 90.5198 33.3579 90.5372 33.1284 90.5546V95.095H29V77.1518H33.1306C34.1567 77.1692 35.1179 77.3561 36.0142 77.7171C36.9104 78.0781 37.6963 78.5608 38.3717 79.1609C39.0472 79.7654 39.5775 80.4698 39.9607 81.2722C40.3438 82.0702 40.5344 82.9291 40.5344 83.8445C40.5344 84.8055 40.3309 85.7014 39.9239 86.5277C39.5169 87.3539 38.9454 88.065 38.2137 88.6716L42.1732 95.095H37.3087L34.4251 90.4307ZM33.1306 86.3798C33.57 86.3625 33.99 86.2863 34.3883 86.1472C34.7867 86.008 35.1374 85.8232 35.4383 85.5948C35.7392 85.3665 35.9752 85.0991 36.1462 84.7969C36.3172 84.4946 36.4038 84.1706 36.4038 83.8271C36.4038 83.4835 36.3172 83.1639 36.1462 82.8704C35.9752 82.5769 35.7392 82.3137 35.4383 82.0855C35.1374 81.8571 34.7867 81.6723 34.3883 81.5331C33.99 81.394 33.57 81.3157 33.1306 81.3004V86.3798Z" fill="#00C194"></path><path fill-rule="evenodd" clip-rule="evenodd" d="M55.7382 81.2265H48.356V83.951H54.344V88.0997H48.356V90.9459H55.7382V95.095H44.2255V77.1017L55.7382 77.0779V81.2265Z" fill="#00C194"></path><path fill-rule="evenodd" clip-rule="evenodd" d="M68.6429 95.095L67.935 92.9097H62.2891L61.5552 95.095H57.18L63.2893 77.0779H67.199L72.9922 95.095H68.6429ZM63.7049 88.7607H66.6123L65.1943 84.3924L63.7049 88.7607Z" fill="#00C194"></path><path fill-rule="evenodd" clip-rule="evenodd" d="M85.4077 95.095H74.7284V77.0518H78.859V90.9459H85.4077V95.095Z" fill="#00C194"></path><path fill-rule="evenodd" clip-rule="evenodd" d="M103.006 81.2265H95.6236V83.951H101.612V88.0997H95.6236V90.9459H103.006V95.095H91.493V77.1017L103.006 77.0779V81.2265Z" fill="#00C194"></path><path fill-rule="evenodd" clip-rule="evenodd" d="M110.973 95.4384C110.403 95.4384 109.836 95.3603 109.273 95.2058C108.71 95.0513 108.178 94.8101 107.673 94.4813C106.794 93.9097 106.108 93.1681 105.621 92.2593C105.132 91.3504 104.887 90.3567 104.887 89.2761H109.018C109.018 89.7675 109.124 90.148 109.336 90.4176C109.548 90.6872 109.734 90.872 109.899 90.9699C110.191 91.1656 110.509 91.2721 110.851 91.2895C111.193 91.307 111.527 91.2395 111.854 91.0938C112.081 90.996 112.265 90.872 112.403 90.7264C112.542 90.5785 112.648 90.435 112.722 90.2958C112.795 90.1567 112.841 90.0219 112.856 89.8914C112.873 89.7609 112.88 89.6544 112.88 89.5718C112.88 89.4892 112.871 89.3826 112.856 89.2521C112.839 89.1216 112.795 88.9825 112.722 88.8347C112.648 88.6868 112.542 88.5433 112.403 88.4042C112.265 88.2649 112.081 88.1389 111.854 88.0237C111.674 87.941 111.483 87.8671 111.28 87.8019C111.076 87.7366 110.86 87.6626 110.633 87.5801C110.226 87.4496 109.801 87.3017 109.362 87.1386C108.922 86.9756 108.483 86.7538 108.041 86.4755C107.472 86.1146 106.991 85.6644 106.599 85.1252C106.208 84.586 105.928 84.0032 105.757 83.3814C105.586 82.7595 105.53 82.1181 105.586 81.4548C105.643 80.7917 105.827 80.1589 106.136 79.5523C106.428 78.9956 106.797 78.5129 107.236 78.1042C107.675 77.6953 108.165 77.3714 108.702 77.1343C109.238 76.8973 109.816 76.7538 110.438 76.7039C111.057 76.6538 111.685 76.7125 112.319 76.8756C112.938 77.0234 113.497 77.2561 113.997 77.5758C114.501 77.8954 114.934 78.2803 115.296 78.7304C115.661 79.1804 115.943 79.6827 116.136 80.2394C116.33 80.796 116.428 81.3766 116.428 81.9832H112.319C112.319 81.607 112.2 81.3461 111.964 81.1983C111.728 81.0504 111.52 80.9525 111.34 80.9047C111.308 80.9047 111.23 80.8917 111.109 80.8677C110.988 80.8439 110.849 80.8439 110.693 80.8677C110.54 80.8917 110.379 80.9504 110.217 81.0396C110.055 81.1287 109.925 81.2722 109.825 81.47C109.695 81.731 109.669 82.0049 109.752 82.292C109.834 82.579 109.996 82.8029 110.241 82.966C110.468 83.0965 110.721 83.2161 110.998 83.3227C111.276 83.4292 111.568 83.5314 111.877 83.6293C112.154 83.7118 112.436 83.801 112.72 83.8989C113.005 83.9967 113.289 84.1119 113.583 84.2424C114.651 84.7338 115.49 85.4536 116.096 86.4016C116.703 87.3518 117.008 88.4063 117.008 89.5675C117.008 90.7133 116.703 91.7592 116.096 92.7094C115.49 93.6599 114.651 94.3792 113.583 94.8684C113.163 95.0641 112.733 95.2075 112.293 95.2993C111.854 95.3929 111.412 95.4384 110.973 95.4384Z" fill="#00C194"></path><path fill-rule="evenodd" clip-rule="evenodd" d="M129.571 77.004V81.1526H126.127V95.0951H121.996V81.1526H118.574V77.004H129.571Z" fill="#00C194"></path><path fill-rule="evenodd" clip-rule="evenodd" d="M142.11 95.095L141.401 92.9097H135.756L135.022 95.095H130.646L136.756 77.0779H140.666L146.457 95.095H142.11ZM137.174 88.7607H140.081L138.663 84.3924L137.174 88.7607Z" fill="#00C194"></path><path fill-rule="evenodd" clip-rule="evenodd" d="M158.484 77.004V81.1526H155.039V95.0951H150.91V81.1526H147.487V77.004H158.484Z" fill="#00C194"></path><path fill-rule="evenodd" clip-rule="evenodd" d="M172 81.2265H164.62V83.951H170.608V88.0997H164.62V90.9459H172V95.095H160.49V77.1017L172 77.0779V81.2265Z" fill="#00C194"></path><path fill-rule="evenodd" clip-rule="evenodd" d="M31.784 109.989L32.5742 108.052L30.2448 103.092H31.9789L33.3817 106.066L34.5767 103.092H36.2761L33.4834 109.989H31.784Z" fill="#00C194"></path><path fill-rule="evenodd" clip-rule="evenodd" d="M44.1064 103.14C44.5762 103.14 45.0178 103.229 45.4313 103.41C45.8448 103.59 46.2063 103.834 46.5159 104.14C46.8255 104.447 47.0679 104.81 47.2477 105.225C47.4273 105.641 47.5161 106.086 47.5161 106.558C47.5161 107.03 47.4273 107.473 47.2477 107.891C47.0679 108.307 46.8255 108.67 46.5159 108.976C46.2063 109.282 45.8448 109.528 45.4313 109.706C45.0178 109.887 44.5762 109.976 44.1064 109.976C43.6366 109.976 43.195 109.887 42.7815 109.706C42.368 109.526 42.0086 109.282 41.7012 108.976C41.396 108.667 41.1535 108.307 40.9739 107.891C40.7942 107.476 40.7054 107.03 40.7054 106.558C40.7054 106.086 40.7942 105.641 40.9739 105.225C41.1535 104.81 41.3938 104.447 41.7012 104.14C42.0065 103.834 42.368 103.587 42.7815 103.41C43.1972 103.229 43.6366 103.14 44.1064 103.14ZM44.1107 108.406C44.364 108.406 44.6022 108.358 44.8251 108.263C45.0481 108.167 45.243 108.034 45.4096 107.867C45.5764 107.7 45.7084 107.504 45.8037 107.28C45.8989 107.056 45.9465 106.816 45.9465 106.562C45.9465 106.308 45.8989 106.069 45.8037 105.845C45.7084 105.621 45.5764 105.425 45.4096 105.258C45.243 105.09 45.0481 104.957 44.8251 104.862C44.6022 104.766 44.364 104.719 44.1107 104.719C43.8574 104.719 43.6193 104.766 43.3963 104.862C43.1734 104.957 42.9785 105.09 42.8118 105.258C42.6451 105.425 42.5131 105.621 42.4178 105.845C42.3225 106.069 42.2749 106.308 42.2749 106.562C42.2749 106.816 42.3225 107.056 42.4178 107.28C42.5131 107.504 42.6451 107.7 42.8118 107.867C42.9785 108.034 43.1734 108.167 43.3963 108.263C43.6193 108.358 43.8574 108.406 44.1107 108.406Z" fill="#00C194"></path><path fill-rule="evenodd" clip-rule="evenodd" d="M54.5453 109.989C54.199 109.989 53.8699 109.926 53.5625 109.797C53.2529 109.67 52.978 109.489 52.7355 109.252C52.4887 109.004 52.2982 108.724 52.164 108.413C52.032 108.101 51.9605 107.769 51.9562 107.415V103.136H53.5235V107.404C53.5235 107.677 53.6253 107.917 53.8288 108.121C54.0322 108.315 54.2747 108.41 54.5518 108.41C54.6882 108.41 54.8181 108.382 54.9415 108.325C55.0649 108.27 55.1732 108.195 55.2662 108.101C55.3593 108.009 55.4307 107.9 55.4806 107.775C55.5303 107.652 55.5542 107.517 55.5542 107.375V103.136H57.1216V107.367C57.1281 107.721 57.0652 108.056 56.931 108.373C56.799 108.691 56.615 108.967 56.3834 109.202C56.1516 109.439 55.8789 109.626 55.5671 109.765C55.2555 109.905 54.922 109.979 54.5691 109.985L54.5453 109.989Z" fill="#00C194"></path><path fill-rule="evenodd" clip-rule="evenodd" d="M64.0902 108.219C64.0101 108.232 63.93 108.241 63.8499 108.247C63.7699 108.254 63.6854 108.26 63.5988 108.267V109.991H62.0314V103.179H63.5988C63.9885 103.186 64.3544 103.257 64.6942 103.394C65.0341 103.532 65.3329 103.714 65.5905 103.942C65.8481 104.173 66.0473 104.44 66.1944 104.744C66.3395 105.047 66.4131 105.373 66.4131 105.721C66.4131 106.086 66.3352 106.425 66.1815 106.741C66.0278 107.053 65.8113 107.325 65.532 107.554L67.0345 109.993H65.1878L64.0902 108.219ZM63.5966 106.682C63.7634 106.676 63.9236 106.647 64.075 106.592C64.2266 106.541 64.3587 106.471 64.4734 106.384C64.5881 106.297 64.6769 106.197 64.7418 106.082C64.8068 105.967 64.8393 105.845 64.8393 105.714C64.8393 105.584 64.8068 105.462 64.7418 105.351C64.6769 105.241 64.5881 105.14 64.4734 105.053C64.3587 104.967 64.2266 104.896 64.075 104.845C63.9236 104.793 63.7634 104.762 63.5966 104.756V106.682Z" fill="#00C194"></path><path fill-rule="evenodd" clip-rule="evenodd" d="M77.1682 103.12V104.696H75.8606V109.989H74.2911V104.696H72.9922V103.12H77.1682Z" fill="#00C194"></path><path fill-rule="evenodd" clip-rule="evenodd" d="M85.6999 109.989L85.4315 109.161H83.2883L83.0089 109.989H81.3485L83.6692 103.149H85.1544L87.3538 109.989H85.6999ZM83.8252 107.585H84.9292L84.3901 105.925L83.8252 107.585Z" fill="#00C194"></path><path fill-rule="evenodd" clip-rule="evenodd" d="M97.3208 109.991H95.7427V109.824C95.5695 109.887 95.392 109.93 95.2079 109.959C95.0262 109.987 94.8443 110 94.6646 110C94.2251 110 93.7964 109.915 93.3743 109.748C92.9544 109.58 92.5755 109.328 92.2421 108.993C91.9088 108.658 91.6597 108.28 91.4953 107.86C91.3307 107.44 91.2485 107.01 91.2485 106.569C91.2485 106.127 91.3307 105.695 91.4953 105.273C91.6597 104.851 91.9088 104.471 92.2421 104.136C92.5755 103.801 92.9544 103.549 93.3743 103.381C93.7943 103.214 94.2251 103.129 94.6646 103.129C95.1041 103.129 95.5327 103.214 95.9549 103.381C96.3748 103.549 96.7537 103.801 97.0871 104.136L95.9743 105.253C95.7947 105.073 95.5911 104.938 95.3616 104.849C95.1322 104.76 94.9005 104.714 94.6668 104.714C94.4308 104.714 94.1992 104.76 93.9718 104.849C93.7423 104.938 93.5389 105.075 93.3591 105.253C93.1795 105.434 93.0431 105.638 92.95 105.869C92.8569 106.099 92.8115 106.331 92.8115 106.567C92.8115 106.804 92.8569 107.036 92.95 107.264C93.0431 107.495 93.1795 107.7 93.3591 107.88C93.5193 108.041 93.7012 108.167 93.9025 108.258C94.1039 108.348 94.3118 108.402 94.5239 108.417C94.7382 108.433 94.9481 108.413 95.1603 108.356C95.3703 108.3 95.5652 108.206 95.7448 108.076V107.73H94.381V106.156H97.3208V109.991Z" fill="#00C194"></path><path fill-rule="evenodd" clip-rule="evenodd" d="M106.086 109.989H102.029V103.14H103.599V108.415H106.086V109.989Z" fill="#00C194"></path><path fill-rule="evenodd" clip-rule="evenodd" d="M112.261 109.989H110.693V103.14H112.261V109.989Z" fill="#00C194"></path><path fill-rule="evenodd" clip-rule="evenodd" d="M121.08 103.149H122.648V109.989H120.951L118.723 106.001V109.989H117.156V103.169H118.861L121.08 107.147V103.149Z" fill="#00C194"></path><path fill-rule="evenodd" clip-rule="evenodd" d="M131.747 104.725H128.943V105.758H131.218V107.334H128.943V108.415H131.747V109.989H127.375V103.157L131.747 103.149V104.725Z" fill="#00C194"></path><path fill-rule="evenodd" clip-rule="evenodd" d="M141.475 103.149H143.043V109.989H141.475V107.408H139.507V109.989H137.94V103.149H139.507V105.834H141.475V103.149Z" fill="#00C194"></path><path fill-rule="evenodd" clip-rule="evenodd" d="M152.066 104.725H149.265V105.758H151.538V107.334H149.265V108.415H152.066V109.989H147.697V103.157L152.066 103.149V104.725Z" fill="#00C194"></path><path fill-rule="evenodd" clip-rule="evenodd" d="M158.901 108.219C158.82 108.232 158.74 108.241 158.658 108.247C158.578 108.254 158.494 108.26 158.406 108.267V109.991H156.839V103.179H158.406C158.797 103.186 159.163 103.257 159.502 103.394C159.842 103.532 160.141 103.714 160.398 103.942C160.656 104.173 160.855 104.44 161.003 104.744C161.147 105.047 161.221 105.373 161.221 105.721C161.221 106.086 161.143 106.425 160.99 106.741C160.836 107.053 160.619 107.325 160.34 107.554L161.843 109.993H159.996L158.901 108.219ZM158.409 106.682C158.576 106.676 158.736 106.647 158.888 106.592C159.039 106.541 159.171 106.471 159.286 106.384C159.401 106.297 159.49 106.197 159.554 106.082C159.619 105.967 159.651 105.845 159.651 105.714C159.651 105.584 159.619 105.462 159.554 105.351C159.49 105.241 159.401 105.14 159.286 105.053C159.171 104.967 159.039 104.896 158.888 104.845C158.736 104.793 158.576 104.762 158.409 104.756V106.682Z" fill="#00C194"></path><path fill-rule="evenodd" clip-rule="evenodd" d="M170.764 104.725H167.96V105.758H170.236V107.334H167.96V108.415H170.764V109.989H166.393V103.157L170.764 103.149V104.725Z" fill="#00C194"></path><path fill-rule="evenodd" clip-rule="evenodd" d="M51.5535 65.0775H49.1073V65.9799H51.0924V67.3562H49.1073V68.2999H51.5535V69.6741H47.7391V63.712L51.5535 63.7033V65.0775Z" fill="#00C194"></path><path fill-rule="evenodd" clip-rule="evenodd" d="M54.4934 69.7872C54.3051 69.7872 54.1167 69.7611 53.9306 69.7089C53.7444 69.6567 53.5669 69.5784 53.4002 69.4697C53.1079 69.2805 52.8828 69.0348 52.7204 68.7326C52.558 68.4325 52.478 68.102 52.478 67.7432H53.8461C53.8461 67.9063 53.8808 68.0325 53.9522 68.1216C54.0215 68.2107 54.0843 68.2716 54.1384 68.3042C54.2358 68.3694 54.3419 68.4042 54.4544 68.4107C54.5671 68.4151 54.6797 68.3955 54.7857 68.3456C54.8614 68.313 54.9221 68.2716 54.9675 68.2238C55.013 68.176 55.0477 68.1281 55.0736 68.0824C55.0974 68.0368 55.1126 67.9911 55.1191 67.9477C55.1234 67.9041 55.1277 67.8694 55.1277 67.8411C55.1277 67.815 55.1256 67.7781 55.1191 67.7345C55.1147 67.691 55.0996 67.6454 55.0736 67.5954C55.0498 67.5475 55.0151 67.4997 54.9675 67.454C54.9221 67.4084 54.8614 67.3649 54.7857 67.3279C54.7273 67.3019 54.6623 67.2758 54.5952 67.254C54.5281 67.2322 54.4567 67.2084 54.3809 67.1801C54.2466 67.1366 54.1059 67.0887 53.9587 67.0344C53.8137 66.9801 53.6665 66.9061 53.5214 66.8147C53.3331 66.6952 53.1728 66.5474 53.0429 66.3669C52.9131 66.1886 52.82 65.995 52.7637 65.7885C52.7075 65.5819 52.6879 65.3688 52.7075 65.1492C52.7269 64.9296 52.7875 64.7187 52.8892 64.5186C52.9867 64.3338 53.1079 64.1751 53.253 64.0381C53.398 63.9033 53.5604 63.7946 53.7379 63.7163C53.9154 63.6381 54.1081 63.5902 54.3138 63.575C54.5194 63.5598 54.7273 63.5771 54.9372 63.6315C55.1429 63.6793 55.3269 63.7576 55.4936 63.8641C55.6603 63.9707 55.8032 64.0968 55.9244 64.2469C56.0457 64.3969 56.1388 64.5621 56.2015 64.7469C56.2664 64.9317 56.299 65.1231 56.299 65.3254H54.9372C54.9372 65.2014 54.8983 65.1144 54.8203 65.0644C54.7424 65.0166 54.6731 64.9839 54.6147 64.9666C54.6039 64.9666 54.5778 64.9622 54.5367 64.9535C54.4956 64.9449 54.4502 64.9449 54.3982 64.9535C54.3462 64.9622 54.2942 64.9796 54.2401 65.0101C54.186 65.0405 54.1428 65.0883 54.1102 65.1514C54.067 65.2383 54.0583 65.3297 54.0864 65.4232C54.1124 65.5188 54.1666 65.5928 54.2489 65.6472C54.3246 65.6907 54.409 65.7298 54.4999 65.7646C54.5909 65.7993 54.6883 65.8342 54.7922 65.8668C54.8831 65.8929 54.9762 65.9233 55.0715 65.9559C55.1667 65.9885 55.2598 66.0255 55.3572 66.0689C55.7101 66.232 55.9893 66.4712 56.1907 66.7844C56.3921 67.0996 56.4938 67.4497 56.4938 67.8345C56.4938 68.2151 56.3921 68.5608 56.1907 68.8761C55.9893 69.1914 55.7122 69.4284 55.3572 69.5915C55.2187 69.6567 55.0758 69.7045 54.9286 69.7328C54.7857 69.7741 54.6385 69.7872 54.4934 69.7872Z" fill="#00C194"></path><path fill-rule="evenodd" clip-rule="evenodd" d="M60.9555 63.6794V65.0535H59.8146V69.6741H58.4443V65.0535H57.3121V63.6794H60.9555Z" fill="#00C194"></path><path fill-rule="evenodd" clip-rule="evenodd" d="M63.1918 63.6793C63.5858 63.7011 63.9582 63.7968 64.3045 63.9642C64.6531 64.1316 64.9562 64.3512 65.2116 64.623C65.4671 64.8948 65.6706 65.2079 65.82 65.5667C65.9693 65.9254 66.043 66.306 66.043 66.7148C66.043 67.1171 65.9693 67.491 65.8243 67.8411C65.6792 68.1912 65.4779 68.4978 65.2203 68.7652C64.9648 69.0304 64.6618 69.2436 64.3175 69.4044C63.9712 69.5654 63.5966 69.6545 63.1918 69.6763H61.8236V63.6728H63.1918V63.6793ZM63.1918 68.2912C63.4018 68.2695 63.5988 68.2129 63.7785 68.1238C63.9603 68.0346 64.1162 67.9193 64.2483 67.7823C64.3803 67.6432 64.4843 67.4824 64.56 67.2975C64.6357 67.1127 64.6726 66.917 64.6726 66.7126C64.6726 66.5017 64.6357 66.2995 64.56 66.1059C64.4843 65.9124 64.3782 65.7429 64.2439 65.5928C64.1097 65.4428 63.9517 65.321 63.7741 65.2275C63.5966 65.1318 63.4018 65.0752 63.1918 65.0535V68.2912Z" fill="#00C194"></path><path fill-rule="evenodd" clip-rule="evenodd" d="M135.767 63.6859H137.135V69.6741H135.767V65.8668L135.362 66.3713L134.299 65.5015L135.767 63.6859Z" fill="#00C194"></path><path fill-rule="evenodd" clip-rule="evenodd" d="M140.228 68.0064C139.958 67.9803 139.704 67.9042 139.466 67.7824C139.228 67.6607 139.023 67.5041 138.847 67.3149C138.672 67.1257 138.534 66.9061 138.434 66.6561C138.334 66.406 138.285 66.1407 138.285 65.8581C138.285 65.5602 138.341 65.2797 138.456 65.0166C138.568 64.7535 138.722 64.5252 138.916 64.3295C139.112 64.1338 139.339 63.9794 139.601 63.8664C139.863 63.7533 140.142 63.6945 140.438 63.6945C140.735 63.6945 141.014 63.7511 141.272 63.8664C141.532 63.9794 141.757 64.1338 141.952 64.3295C142.146 64.5252 142.301 64.7535 142.413 65.0166C142.526 65.2797 142.584 65.5602 142.584 65.8581C142.584 66.1777 142.516 66.4864 142.38 66.7865L140.924 69.6741H139.393L140.228 68.0064ZM140.438 65.0687C140.33 65.0687 140.228 65.0883 140.135 65.1297C140.04 65.171 139.958 65.2275 139.884 65.3014C139.81 65.3753 139.755 65.458 139.713 65.5537C139.672 65.6493 139.653 65.7494 139.653 65.8581C139.653 65.9668 139.672 66.069 139.713 66.1625C139.755 66.2581 139.81 66.3408 139.884 66.4104C139.958 66.4799 140.04 66.5365 140.135 66.5778C140.231 66.6192 140.33 66.6387 140.438 66.6387C140.655 66.6387 140.839 66.5626 140.989 66.4104C141.14 66.2581 141.216 66.0733 141.216 65.8581C141.216 65.7494 141.196 65.6472 141.155 65.5537C141.114 65.458 141.06 65.3753 140.989 65.3014C140.919 65.2275 140.837 65.171 140.741 65.1297C140.649 65.0905 140.547 65.0687 140.438 65.0687Z" fill="#00C194"></path><path fill-rule="evenodd" clip-rule="evenodd" d="M145.565 68.0064C145.294 67.9803 145.041 67.9042 144.803 67.7824C144.565 67.6607 144.359 67.5041 144.183 67.3149C144.008 67.1257 143.87 66.9061 143.77 66.6561C143.671 66.406 143.621 66.1407 143.621 65.8581C143.621 65.5602 143.677 65.2797 143.792 65.0166C143.904 64.7535 144.058 64.5252 144.253 64.3295C144.448 64.1338 144.675 63.9794 144.937 63.8664C145.199 63.7533 145.478 63.6945 145.774 63.6945C146.072 63.6945 146.351 63.7511 146.609 63.8664C146.868 63.9794 147.093 64.1338 147.288 64.3295C147.483 64.5252 147.637 64.7535 147.749 65.0166C147.862 65.2797 147.92 65.5602 147.92 65.8581C147.92 66.1777 147.854 66.4864 147.717 66.7865L146.26 69.6741H144.729L145.565 68.0064ZM145.777 65.0687C145.669 65.0687 145.567 65.0883 145.474 65.1297C145.379 65.171 145.297 65.2275 145.223 65.3014C145.149 65.3753 145.093 65.458 145.052 65.5537C145.011 65.6493 144.991 65.7494 144.991 65.8581C144.991 65.9668 145.011 66.069 145.052 66.1625C145.093 66.2581 145.149 66.3408 145.223 66.4104C145.297 66.4799 145.379 66.5365 145.474 66.5778C145.569 66.6192 145.669 66.6387 145.777 66.6387C145.994 66.6387 146.178 66.5626 146.327 66.4104C146.478 66.2581 146.555 66.0733 146.555 65.8581C146.555 65.7494 146.535 65.6472 146.494 65.5537C146.453 65.458 146.399 65.3753 146.327 65.3014C146.257 65.2275 146.175 65.171 146.08 65.1297C145.985 65.0905 145.885 65.0687 145.777 65.0687Z" fill="#00C194"></path><path fill-rule="evenodd" clip-rule="evenodd" d="M150.904 68.0064C150.633 67.9803 150.38 67.9042 150.142 67.7824C149.904 67.6607 149.698 67.5041 149.522 67.3149C149.347 67.1257 149.208 66.9061 149.109 66.6561C149.01 66.406 148.959 66.1407 148.959 65.8581C148.959 65.5602 149.016 65.2797 149.13 65.0166C149.243 64.7535 149.397 64.5252 149.592 64.3295C149.786 64.1338 150.014 63.9794 150.276 63.8664C150.537 63.7533 150.817 63.6945 151.113 63.6945C151.41 63.6945 151.689 63.7511 151.947 63.8664C152.207 63.9794 152.434 64.1338 152.627 64.3295C152.822 64.5252 152.975 64.7535 153.088 65.0166C153.2 65.2797 153.258 65.5602 153.258 65.8581C153.258 66.1777 153.192 66.4864 153.056 66.7865L151.598 69.6741H150.068L150.904 68.0064ZM151.113 65.0687C151.006 65.0687 150.904 65.0883 150.81 65.1297C150.715 65.171 150.633 65.2275 150.559 65.3014C150.486 65.3753 150.429 65.458 150.388 65.5537C150.347 65.6493 150.327 65.7494 150.327 65.8581C150.327 65.9668 150.347 66.069 150.388 66.1625C150.429 66.256 150.486 66.3408 150.559 66.4104C150.633 66.4799 150.715 66.5365 150.81 66.5778C150.905 66.6192 151.006 66.6387 151.113 66.6387C151.33 66.6387 151.514 66.5626 151.663 66.4104C151.815 66.2581 151.891 66.0733 151.891 65.8581C151.891 65.7494 151.871 65.6472 151.83 65.5537C151.789 65.458 151.735 65.3753 151.663 65.3014C151.594 65.2275 151.512 65.171 151.417 65.1297C151.323 65.0905 151.221 65.0687 151.113 65.0687Z" fill="#00C194"></path></svg>