<svg xmlns="http://www.w3.org/2000/svg" width="200" height="117" viewBox="0 0 200 117" fill="none"><path fill-rule="evenodd" clip-rule="evenodd" d="M30.5903 108.988L31.3924 107.031L29.0238 102.024H30.7883L32.2146 105.028L33.4327 102.024H35.1597L32.3173 108.988H30.5903Z" fill="#00C194"></path><path fill-rule="evenodd" clip-rule="evenodd" d="M43.1252 102.072C43.604 102.072 44.0526 102.162 44.4738 102.344C44.8949 102.527 45.2608 102.771 45.5766 103.083C45.8924 103.394 46.1381 103.761 46.321 104.181C46.504 104.6 46.5943 105.05 46.5943 105.527C46.5943 106.004 46.504 106.451 46.321 106.874C46.1381 107.294 45.8924 107.658 45.5766 107.97C45.2608 108.281 44.8949 108.528 44.4738 108.71C44.0526 108.892 43.604 108.983 43.1252 108.983C42.6465 108.983 42.1978 108.892 41.7768 108.71C41.3557 108.528 40.9897 108.283 40.679 107.97C40.3681 107.661 40.1225 107.294 39.9395 106.874C39.7565 106.454 39.6664 106.004 39.6664 105.527C39.6664 105.05 39.7565 104.603 39.9395 104.181C40.1225 103.761 40.3681 103.396 40.679 103.083C40.9897 102.774 41.3582 102.527 41.7768 102.344C42.2004 102.164 42.6465 102.072 43.1252 102.072ZM43.1303 107.389C43.3884 107.389 43.6316 107.341 43.8572 107.243C44.0828 107.146 44.2807 107.014 44.4512 106.843C44.6216 106.674 44.7545 106.476 44.8523 106.252C44.95 106.027 44.9976 105.784 44.9976 105.527C44.9976 105.27 44.95 105.028 44.8523 104.803C44.7545 104.578 44.6216 104.381 44.4512 104.21C44.2807 104.041 44.0828 103.909 43.8572 103.811C43.6316 103.713 43.3884 103.666 43.1303 103.666C42.8721 103.666 42.629 103.713 42.4034 103.811C42.1778 103.909 41.9798 104.041 41.8094 104.21C41.6389 104.381 41.5061 104.578 41.4083 104.803C41.3106 105.028 41.263 105.27 41.263 105.527C41.263 105.784 41.3106 106.027 41.4083 106.252C41.5061 106.476 41.6389 106.674 41.8094 106.843C41.9798 107.014 42.1778 107.146 42.4034 107.243C42.6315 107.341 42.8721 107.389 43.1303 107.389Z" fill="#00C194"></path><path fill-rule="evenodd" clip-rule="evenodd" d="M53.7453 108.988C53.3918 108.988 53.0585 108.923 52.7452 108.795C52.4294 108.668 52.1512 108.483 51.9055 108.245C51.6548 107.996 51.4594 107.713 51.324 107.398C51.1886 107.083 51.1185 106.749 51.1109 106.391V102.072H52.7051V106.382C52.7051 106.656 52.8078 106.899 53.0159 107.106C53.2239 107.301 53.4695 107.398 53.7528 107.398C53.8906 107.398 54.0235 107.371 54.1488 107.314C54.2741 107.256 54.3844 107.181 54.4796 107.089C54.5749 106.994 54.6476 106.883 54.6977 106.759C54.7479 106.634 54.773 106.499 54.773 106.354V102.072H56.3671V106.344C56.372 106.702 56.3094 107.041 56.174 107.361C56.0387 107.681 55.8532 107.961 55.6176 108.198C55.382 108.436 55.1038 108.625 54.788 108.768C54.4697 108.908 54.1312 108.983 53.7728 108.988H53.7453Z" fill="#00C194"></path><path fill-rule="evenodd" clip-rule="evenodd" d="M63.4529 107.201C63.3702 107.214 63.29 107.223 63.2072 107.229C63.1245 107.237 63.0418 107.241 62.9516 107.249V108.99H61.3575V102.112H62.9516C63.3476 102.117 63.7186 102.19 64.0645 102.33C64.4103 102.467 64.7136 102.651 64.9744 102.884C65.235 103.117 65.4405 103.386 65.5884 103.693C65.7363 103.998 65.809 104.328 65.809 104.68C65.809 105.048 65.7313 105.392 65.5734 105.71C65.4155 106.027 65.1949 106.299 64.9117 106.531L66.4406 108.992H64.5633L63.4529 107.201ZM62.9516 105.647C63.122 105.64 63.2824 105.612 63.4379 105.557C63.5932 105.504 63.7261 105.432 63.8439 105.345C63.9592 105.257 64.0519 105.155 64.1171 105.04C64.1823 104.925 64.2174 104.8 64.2174 104.668C64.2174 104.536 64.1848 104.413 64.1171 104.301C64.0519 104.188 63.9592 104.088 63.8439 104.001C63.7286 103.913 63.5932 103.843 63.4379 103.789C63.2824 103.736 63.122 103.706 62.9516 103.698V105.647Z" fill="#00C194"></path><path fill-rule="evenodd" clip-rule="evenodd" d="M76.7573 102.055V103.644H75.4264V108.988H73.8297V103.644H72.5089V102.055H76.7573Z" fill="#00C194"></path><path fill-rule="evenodd" clip-rule="evenodd" d="M85.4372 108.988L85.1641 108.15H82.9834L82.7002 108.988H81.0108L83.3694 102.082H84.8808L87.1191 108.988H85.4372ZM83.5299 106.562H84.6527L84.1063 104.888L83.5299 106.562Z" fill="#00C194"></path><path fill-rule="evenodd" clip-rule="evenodd" d="M97.2579 105.123V108.99H95.6537V108.82C95.4782 108.883 95.2953 108.928 95.1098 108.957C94.9244 108.985 94.7389 109 94.5584 109C94.1122 109 93.6736 108.915 93.2475 108.745C92.8189 108.576 92.4354 108.323 92.097 107.983C91.7561 107.643 91.503 107.263 91.3375 106.839C91.1721 106.414 91.0869 105.982 91.0869 105.535C91.0869 105.09 91.1696 104.653 91.3375 104.228C91.5055 103.801 91.7586 103.418 92.097 103.082C92.4379 102.742 92.8214 102.49 93.2475 102.319C93.6736 102.15 94.1122 102.064 94.5584 102.064C95.0046 102.064 95.4432 102.15 95.8693 102.319C96.2979 102.49 96.6814 102.742 97.0198 103.082L95.8868 104.21C95.7038 104.028 95.4958 103.893 95.2627 103.801C95.0296 103.711 94.794 103.663 94.5559 103.663C94.3178 103.663 94.0796 103.709 93.8491 103.801C93.6159 103.89 93.4079 104.028 93.2249 104.21C93.042 104.393 92.9041 104.6 92.8088 104.833C92.7136 105.065 92.6685 105.3 92.6685 105.537C92.6685 105.775 92.7161 106.012 92.8088 106.242C92.9041 106.474 93.042 106.682 93.2249 106.863C93.3879 107.026 93.5734 107.154 93.7763 107.246C93.9819 107.336 94.1924 107.391 94.408 107.406C94.626 107.421 94.8416 107.401 95.0546 107.346C95.2677 107.289 95.4657 107.197 95.6487 107.063V106.717H94.2602V105.128H97.2579V105.123Z" fill="#00C194"></path><path fill-rule="evenodd" clip-rule="evenodd" d="M106.173 108.988H102.048V102.072H103.644V107.398H106.173V108.988Z" fill="#00C194"></path><path fill-rule="evenodd" clip-rule="evenodd" d="M112.454 108.988H110.861V102.072H112.454V108.988Z" fill="#00C194"></path><path fill-rule="evenodd" clip-rule="evenodd" d="M121.425 102.082H123.022V108.988H121.295L119.03 104.96V108.988H117.432V102.102H119.169L121.425 106.119V102.082Z" fill="#00C194"></path><path fill-rule="evenodd" clip-rule="evenodd" d="M132.276 103.673H129.426V104.717H131.737V106.307H129.426V107.398H132.276V108.988H127.83V102.092L132.276 102.082V103.673Z" fill="#00C194"></path><path fill-rule="evenodd" clip-rule="evenodd" d="M142.175 102.082H143.768V108.988H142.175V106.382H140.171V108.988H138.577V102.082H140.171V104.793H142.175V102.082Z" fill="#00C194"></path><path fill-rule="evenodd" clip-rule="evenodd" d="M152.947 103.673H150.097V104.717H152.41V106.307H150.097V107.398H152.947V108.988H148.501V102.092L152.947 102.082V103.673Z" fill="#00C194"></path><path fill-rule="evenodd" clip-rule="evenodd" d="M159.9 107.201C159.817 107.214 159.737 107.223 159.655 107.229C159.571 107.237 159.486 107.241 159.399 107.249V108.99H157.805V102.112H159.399C159.794 102.117 160.166 102.19 160.511 102.33C160.858 102.467 161.161 102.651 161.421 102.884C161.682 103.117 161.887 103.386 162.036 103.693C162.183 103.998 162.259 104.328 162.259 104.68C162.259 105.048 162.181 105.392 162.023 105.71C161.865 106.027 161.644 106.299 161.361 106.531L162.89 108.992H161.013L159.9 107.201ZM159.399 105.647C159.569 105.64 159.729 105.612 159.885 105.557C160.04 105.504 160.173 105.432 160.291 105.345C160.406 105.257 160.499 105.155 160.564 105.04C160.63 104.925 160.664 104.8 160.664 104.668C160.664 104.536 160.632 104.413 160.564 104.301C160.499 104.188 160.406 104.088 160.291 104.001C160.176 103.913 160.04 103.843 159.885 103.789C159.732 103.736 159.569 103.706 159.399 103.698V105.647Z" fill="#00C194"></path><path fill-rule="evenodd" clip-rule="evenodd" d="M171.966 103.673H169.116V104.717H171.429V106.307H169.116V107.398H171.966V108.988H167.522V102.092L171.966 102.082V103.673Z" fill="#00C194"></path><path fill-rule="evenodd" clip-rule="evenodd" d="M29.2318 71.2046V76.5311H24.7728V94.4369H19.4265V76.5311H15V71.2046H29.2318Z" fill="#00C194"></path><path fill-rule="evenodd" clip-rule="evenodd" d="M38.5284 88.4483C38.2552 88.4908 37.9795 88.5208 37.7063 88.5433C37.433 88.5633 37.1473 88.5857 36.8515 88.6057V94.4369H31.5078V71.3944H36.8515C38.18 71.4144 39.4232 71.6568 40.5837 72.1189C41.7442 72.5811 42.7618 73.2008 43.6366 73.9728C44.5114 74.7497 45.1957 75.6541 45.6919 76.6834C46.1882 77.7078 46.4363 78.8121 46.4363 79.9888C46.4363 81.223 46.1731 82.3748 45.6468 83.4366C45.1205 84.4984 44.381 85.4128 43.4336 86.1898L48.5568 94.4394H42.263L38.5284 88.4483ZM36.8541 83.2468C37.423 83.2268 37.967 83.1268 38.4832 82.9469C38.9996 82.7695 39.4533 82.5321 39.8443 82.2374C40.2353 81.9426 40.5411 81.6028 40.7616 81.213C40.9823 80.8233 41.0925 80.4086 41.0925 79.9688C41.0925 79.5267 40.9823 79.1169 40.7616 78.7396C40.5411 78.3624 40.2353 78.0251 39.8443 77.7303C39.4533 77.4355 39.0022 77.2007 38.4832 77.0208C37.967 76.8408 37.423 76.7434 36.8541 76.7209V83.2468Z" fill="#00C194"></path><path fill-rule="evenodd" clip-rule="evenodd" d="M65.443 76.626H55.8908V80.1263H63.6409V85.4528H55.8908V89.1105H65.443V94.437H50.547V71.332L65.443 71.2995V76.626Z" fill="#00C194"></path><path fill-rule="evenodd" clip-rule="evenodd" d="M82.7428 76.626H73.1906V80.1263H80.9406V85.4528H73.1906V89.1105H82.7428V94.437H67.8467V71.332L82.7428 71.2995V76.626Z" fill="#00C194"></path><path fill-rule="evenodd" clip-rule="evenodd" d="M102.381 71.2995H107.727V94.437H102.381V85.7052H95.6762V94.437H90.3324V71.2995H95.6762V80.3786H102.381V71.2995Z" fill="#00C194"></path><path fill-rule="evenodd" clip-rule="evenodd" d="M120.423 71.267C122.024 71.267 123.529 71.5718 124.939 72.1814C126.345 72.791 127.581 73.6155 128.634 74.6549C129.689 75.6942 130.516 76.9183 131.128 78.3275C131.739 79.7365 132.046 81.2381 132.046 82.8345C132.046 84.4309 131.739 85.9349 131.128 87.3415C130.516 88.7507 129.689 89.9749 128.634 91.0142C127.579 92.0535 126.345 92.8805 124.939 93.4875C123.526 94.0972 122.024 94.402 120.423 94.402C118.821 94.402 117.317 94.0972 115.907 93.4875C114.5 92.878 113.272 92.0535 112.227 91.0142C111.184 89.9749 110.362 88.7507 109.751 87.3415C109.139 85.9325 108.833 84.4309 108.833 82.8345C108.833 81.2381 109.139 79.734 109.751 78.3275C110.362 76.9183 111.184 75.6942 112.227 74.6549C113.269 73.6155 114.498 72.7885 115.907 72.1814C117.32 71.5718 118.821 71.267 120.423 71.267ZM120.44 89.0779C121.305 89.0779 122.117 88.9155 122.877 88.5882C123.636 88.2635 124.3 87.8162 124.87 87.2491C125.438 86.682 125.887 86.0199 126.213 85.2629C126.539 84.5059 126.704 83.6964 126.704 82.8345C126.704 81.9726 126.541 81.1631 126.213 80.4061C125.887 79.649 125.438 78.987 124.87 78.4199C124.3 77.8528 123.636 77.4055 122.877 77.0808C122.117 76.756 121.305 76.591 120.44 76.591C119.576 76.591 118.763 76.7535 118.004 77.0808C117.245 77.4055 116.58 77.8528 116.012 78.4199C115.442 78.987 114.993 79.649 114.668 80.4061C114.342 81.1631 114.177 81.9726 114.177 82.8345C114.177 83.6964 114.34 84.5059 114.668 85.2629C114.993 86.0199 115.442 86.682 116.012 87.2491C116.58 87.8162 117.245 88.2635 118.004 88.5882C118.763 88.9155 119.576 89.0779 120.44 89.0779Z" fill="#00C194"></path><path fill-rule="evenodd" clip-rule="evenodd" d="M142.483 94.437C141.302 94.437 140.184 94.2221 139.131 93.7899C138.076 93.3602 137.138 92.7456 136.316 91.9461C135.474 91.1066 134.825 90.1597 134.371 89.1079C133.918 88.0561 133.679 86.9318 133.659 85.7351V71.267H139.004V85.7051C139.004 86.6296 139.352 87.439 140.046 88.1336C140.743 88.7857 141.565 89.1104 142.512 89.1104C142.977 89.1104 143.42 89.0155 143.841 88.8257C144.262 88.6357 144.63 88.3834 144.949 88.0686C145.265 87.7538 145.508 87.3865 145.675 86.9643C145.844 86.5446 145.929 86.0924 145.929 85.6077V71.2645H151.272V85.5752C151.293 86.7719 151.077 87.9087 150.624 88.9805C150.17 90.0524 149.548 90.9867 148.758 91.7862C147.969 92.5857 147.039 93.2203 145.976 93.6924C144.911 94.1646 143.779 94.412 142.577 94.4344L142.483 94.437Z" fill="#00C194"></path><path fill-rule="evenodd" clip-rule="evenodd" d="M161.364 94.8792C160.627 94.8792 159.893 94.7792 159.165 94.5794C158.439 94.3795 157.747 94.0698 157.095 93.65C155.957 92.9155 155.07 91.9636 154.438 90.7969C153.807 89.6301 153.491 88.3534 153.491 86.9668H158.834C158.834 87.5964 158.972 88.0861 159.246 88.4334C159.519 88.7806 159.762 89.0155 159.972 89.1429C160.351 89.3952 160.762 89.5327 161.206 89.5526C161.649 89.5726 162.081 89.4902 162.502 89.3004C162.798 89.1729 163.033 89.0155 163.214 88.8281C163.394 88.6383 163.53 88.4558 163.625 88.276C163.72 88.0961 163.778 87.9238 163.798 87.7564C163.818 87.589 163.83 87.4515 163.83 87.3466C163.83 87.2417 163.82 87.1043 163.798 86.9369C163.778 86.7695 163.717 86.5896 163.625 86.3997C163.53 86.2098 163.392 86.0274 163.214 85.8476C163.036 85.6677 162.798 85.5053 162.502 85.3579C162.268 85.253 162.023 85.158 161.757 85.0731C161.494 84.9881 161.214 84.8957 160.92 84.7883C160.393 84.6209 159.845 84.431 159.276 84.2212C158.707 84.0112 158.138 83.7265 157.569 83.3691C156.832 82.907 156.208 82.3298 155.704 81.6353C155.197 80.9408 154.835 80.1963 154.614 79.3968C154.394 78.5972 154.318 77.7728 154.394 76.9234C154.466 76.0714 154.704 75.257 155.105 74.4799C155.484 73.7654 155.96 73.1458 156.529 72.6212C157.098 72.0965 157.729 71.6818 158.426 71.377C159.123 71.0722 159.87 70.8873 160.672 70.8248C161.474 70.7624 162.284 70.8348 163.109 71.0447C163.911 71.2345 164.632 71.5344 165.279 71.9441C165.933 72.3538 166.492 72.8485 166.961 73.4257C167.435 74.0028 167.798 74.6498 168.046 75.3644C168.299 76.0789 168.424 76.8259 168.424 77.6029H163.106C163.106 77.1207 162.953 76.7835 162.647 76.5936C162.341 76.4037 162.073 76.2788 161.84 76.2164C161.797 76.2164 161.697 76.2013 161.539 76.1689C161.381 76.1364 161.201 76.1364 161 76.1689C160.8 76.2013 160.594 76.2738 160.384 76.3887C160.173 76.5037 160.005 76.6885 159.878 76.9409C159.709 77.2781 159.677 77.6279 159.782 77.9977C159.887 78.365 160.098 78.6547 160.414 78.8646C160.709 79.032 161.036 79.1844 161.394 79.3218C161.752 79.4592 162.13 79.5891 162.532 79.7165C162.89 79.8215 163.254 79.9365 163.622 80.0638C163.99 80.1887 164.359 80.3362 164.74 80.506C166.121 81.1357 167.206 82.06 167.994 83.2792C168.778 84.4985 169.174 85.8525 169.174 87.3466C169.174 88.8181 168.778 90.1623 167.994 91.3815C167.209 92.6007 166.121 93.5251 164.74 94.1546C164.196 94.407 163.637 94.5918 163.068 94.7068C162.502 94.8218 161.932 94.8792 161.364 94.8792Z" fill="#00C194"></path><path fill-rule="evenodd" clip-rule="evenodd" d="M186 76.626H176.447V80.1263H184.198V85.4528H176.447V89.1105H186V94.437H171.104V71.332L186 71.2995V76.626Z" fill="#00C194"></path><path fill-rule="evenodd" clip-rule="evenodd" d="M93.6034 45.6911H99.1653V51.2325H93.6034V45.6911ZM101.754 29.744C101.865 31.9126 102.822 37.5564 109.828 37.5564C110.52 37.5564 111.084 38.1161 111.084 38.8081C111.084 39.4977 110.522 40.0598 109.828 40.0598C105.805 40.0598 103.306 38.6432 101.754 36.8144V38.8106C101.754 39.5027 101.193 40.0623 100.499 40.0623C99.807 40.0623 99.243 39.5027 99.243 38.8106V36.817C97.6915 38.6457 95.1925 40.0623 91.1721 40.0623C90.4804 40.0623 89.9164 39.5027 89.9164 38.8106C89.9164 38.1186 90.4778 37.559 91.1721 37.559C98.1753 37.559 99.1327 31.9126 99.243 29.7465V29.5941C99.233 29.2618 99.238 29.0195 99.243 28.8896V27.518C97.6915 29.3468 95.1925 30.7634 91.1721 30.7634C90.4804 30.7634 89.9164 30.2037 89.9164 29.5117C89.9164 28.8221 90.4778 28.26 91.1721 28.26C98.1753 28.26 99.1327 22.6137 99.243 20.4476V20.2927C99.233 19.9603 99.238 19.7156 99.243 19.5881V18.219C97.6915 20.0478 95.1925 21.4644 91.1721 21.4644C90.4804 21.4644 89.9164 20.9048 89.9164 20.2127C89.9164 19.5231 90.4778 18.961 91.1721 18.961C98.1753 18.961 99.1327 13.3147 99.243 11.1486V10.9962C99.233 10.6639 99.238 10.4216 99.243 10.2917V10.2517C99.243 9.56213 99.8044 9 100.499 9C101.193 9 101.754 9.55964 101.754 10.2517V10.2917C101.759 10.4191 101.765 10.6639 101.754 10.9962V11.1486C101.865 13.3172 102.822 18.961 109.828 18.961C110.52 18.961 111.084 19.5207 111.084 20.2127C111.084 20.9023 110.522 21.4644 109.828 21.4644C105.805 21.4644 103.306 20.0478 101.754 18.219V19.5906C101.759 19.718 101.765 19.9629 101.754 20.2951V20.4476C101.865 22.6162 102.822 28.26 109.828 28.26C110.52 28.26 111.084 28.8197 111.084 29.5117C111.084 30.2012 110.522 30.7634 109.828 30.7634C105.805 30.7634 103.306 29.3468 101.754 27.518V28.8896C101.759 29.017 101.765 29.2618 101.754 29.5941V29.744ZM148.563 39.3203C148.673 41.4889 149.631 47.1327 156.637 47.1327C157.328 47.1327 157.893 47.6923 157.893 48.3844C157.893 49.0739 157.331 49.6361 156.637 49.6361C152.613 49.6361 150.114 48.2195 148.563 46.3907V58.9376C148.563 59.6271 148.002 60.1892 147.307 60.1892C146.615 60.1892 146.052 59.6296 146.052 58.9376V46.3907C144.5 48.2195 142.001 49.6361 137.981 49.6361C137.289 49.6361 136.725 49.0764 136.725 48.3844C136.725 47.6949 137.287 47.1327 137.981 47.1327C144.984 47.1327 145.942 41.4864 146.052 39.3203V39.1679C146.042 38.8356 146.047 38.5933 146.052 38.4634V37.0917C144.5 38.9205 142.001 40.3371 137.981 40.3371C137.289 40.3371 136.725 39.7775 136.725 39.0855C136.725 38.3959 137.287 37.8337 137.981 37.8337C144.984 37.8337 145.942 32.1874 146.052 30.0213V29.869C146.042 29.5366 146.047 29.2943 146.052 29.1644V27.7928C144.5 29.6216 142.001 31.0382 137.981 31.0382C137.289 31.0382 136.725 30.4785 136.725 29.7865C136.725 29.0944 137.287 28.5348 137.981 28.5348C144.984 28.5348 145.942 22.8884 146.052 20.7223V20.57C146.042 20.2377 146.047 19.9929 146.052 19.8655V19.8255C146.052 19.1359 146.613 18.5737 147.307 18.5737C148.002 18.5737 148.563 19.1334 148.563 19.8255V19.8655C148.568 19.9929 148.574 20.2377 148.563 20.57V20.7223C148.673 22.891 149.631 28.5348 156.637 28.5348C157.328 28.5348 157.893 29.0944 157.893 29.7865C157.893 30.476 157.331 31.0382 156.637 31.0382C152.613 31.0382 150.114 29.6216 148.563 27.7928V29.1644C148.568 29.2918 148.574 29.5366 148.563 29.869V30.0213C148.673 32.1899 149.631 37.8337 156.637 37.8337C157.328 37.8337 157.893 38.3934 157.893 39.0855C157.893 39.775 157.331 40.3371 156.637 40.3371C152.613 40.3371 150.114 38.9205 148.563 37.0917V38.4634C148.568 38.5908 148.574 38.8356 148.563 39.1679V39.3203ZM124.608 29.744C124.719 31.9126 125.679 37.5564 132.682 37.5564C133.374 37.5564 133.938 38.1161 133.938 38.8081C133.938 39.4977 133.376 40.0598 132.682 40.0598C128.659 40.0598 126.16 38.6432 124.608 36.8144V58.94C124.608 59.6296 124.047 60.1917 123.353 60.1917C122.661 60.1917 122.097 59.6321 122.097 58.94V36.8144C120.546 38.6432 118.047 40.0598 114.026 40.0598C113.335 40.0598 112.77 39.5002 112.77 38.8081C112.77 38.1161 113.332 37.5564 114.026 37.5564C121.03 37.5564 121.987 31.9101 122.097 29.744V29.5917C122.087 29.2593 122.092 29.017 122.097 28.887V27.5155C120.546 29.3443 118.047 30.7609 114.026 30.7609C113.335 30.7609 112.77 30.2012 112.77 29.5091C112.77 28.8197 113.332 28.2575 114.026 28.2575C121.03 28.2575 121.987 22.6111 122.097 20.445V20.2927C122.087 19.9603 122.092 19.7156 122.097 19.5881V18.219C120.546 20.0478 118.047 21.4644 114.026 21.4644C113.335 21.4644 112.77 20.9048 112.77 20.2127C112.77 19.5231 113.332 18.961 114.026 18.961C121.03 18.961 121.987 13.3147 122.097 11.1486V10.9962C122.087 10.6639 122.092 10.4216 122.097 10.2917V10.2517C122.097 9.56213 122.659 9 123.353 9C124.047 9 124.608 9.55964 124.608 10.2517V10.2917C124.614 10.4191 124.619 10.6639 124.608 10.9962V11.1486C124.719 13.3172 125.679 18.961 132.682 18.961C133.374 18.961 133.938 19.5207 133.938 20.2127C133.938 20.9023 133.376 21.4644 132.682 21.4644C128.659 21.4644 126.16 20.0478 124.608 18.219V19.5906C124.614 19.718 124.619 19.9629 124.608 20.2951V20.4476C124.719 22.6162 125.679 28.26 132.682 28.26C133.374 28.26 133.938 28.8197 133.938 29.5117C133.938 30.2012 133.376 30.7634 132.682 30.7634C128.659 30.7634 126.16 29.3468 124.608 27.518V28.8896C124.614 29.017 124.619 29.2618 124.608 29.5941V29.744ZM78.9004 29.744C79.0107 31.9126 79.9681 37.5564 86.9737 37.5564C87.6655 37.5564 88.2295 38.1161 88.2295 38.8081C88.2295 39.4977 87.6681 40.0598 86.9737 40.0598C82.9508 40.0598 80.4519 38.6432 78.9004 36.8144V58.94C78.9004 59.6296 78.3389 60.1917 77.6446 60.1917C76.9528 60.1917 76.3888 59.6321 76.3888 58.94V36.8144C74.8373 38.6432 72.3384 40.0598 68.318 40.0598C67.6262 40.0598 67.0622 39.5002 67.0622 38.8081C67.0622 38.1161 67.6236 37.5564 68.318 37.5564C75.3211 37.5564 76.2786 31.9101 76.3888 29.744V29.5917C76.3788 29.2593 76.3839 29.017 76.3888 28.887V27.5155C74.8373 29.3443 72.3384 30.7609 68.318 30.7609C67.6262 30.7609 67.0622 30.2012 67.0622 29.5091C67.0622 28.8197 67.6236 28.2575 68.318 28.2575C75.3211 28.2575 76.2786 22.6111 76.3888 20.445V20.2927C76.3788 19.9603 76.3839 19.7156 76.3888 19.5881V18.219C74.8373 20.0478 72.3384 21.4644 68.318 21.4644C67.6262 21.4644 67.0622 20.9048 67.0622 20.2127C67.0622 19.5231 67.6236 18.961 68.318 18.961C75.3211 18.961 76.2786 13.3147 76.3888 11.1486V10.9962C76.3788 10.6639 76.3839 10.4216 76.3888 10.2917V10.2517C76.3888 9.56213 76.9503 9 77.6446 9C78.3364 9 78.9004 9.55964 78.9004 10.2517V10.2917C78.9054 10.4191 78.9104 10.6639 78.9004 10.9962V11.1486C79.0107 13.3172 79.9681 18.961 86.9737 18.961C87.6655 18.961 88.2295 19.5207 88.2295 20.2127C88.2295 20.9023 87.6681 21.4644 86.9737 21.4644C82.9508 21.4644 80.4519 20.0478 78.9004 18.219V19.5906C78.9054 19.718 78.9104 19.9629 78.9004 20.2951V20.4476C79.0107 22.6162 79.9681 28.26 86.9737 28.26C87.6655 28.26 88.2295 28.8197 88.2295 29.5117C88.2295 30.2012 87.6681 30.7634 86.9737 30.7634C82.9508 30.7634 80.4519 29.3468 78.9004 27.518V28.8896C78.9054 29.017 78.9104 29.2618 78.9004 29.5941V29.744ZM54.9459 39.3203C55.0562 41.4889 56.0161 47.1327 63.0192 47.1327C63.711 47.1327 64.275 47.6923 64.275 48.3844C64.275 49.0739 63.7136 49.6361 63.0192 49.6361C58.9964 49.6361 56.4974 48.2195 54.9459 46.3907V58.9376C54.9459 59.6271 54.3844 60.1892 53.6901 60.1892C52.9984 60.1892 52.4343 59.6296 52.4343 58.9376V46.3907C50.8828 48.2195 48.3839 49.6361 44.3635 49.6361C43.6717 49.6361 43.1077 49.0764 43.1077 48.3844C43.1077 47.6949 43.6691 47.1327 44.3635 47.1327C51.3666 47.1327 52.3241 41.4864 52.4343 39.3203V39.1679C52.4243 38.8356 52.4294 38.5933 52.4343 38.4634V37.0917C50.8828 38.9205 48.3839 40.3371 44.3635 40.3371C43.6717 40.3371 43.1077 39.7775 43.1077 39.0855C43.1077 38.3959 43.6691 37.8337 44.3635 37.8337C51.3666 37.8337 52.3241 32.1874 52.4343 30.0213V29.869C52.4243 29.5366 52.4294 29.2943 52.4343 29.1644V27.7928C50.8828 29.6216 48.3839 31.0382 44.3635 31.0382C43.6717 31.0382 43.1077 30.4785 43.1077 29.7865C43.1077 29.0944 43.6691 28.5348 44.3635 28.5348C51.3666 28.5348 52.3241 22.8884 52.4343 20.7223V20.57C52.4243 20.2377 52.4294 19.9929 52.4343 19.8655V19.8255C52.4343 19.1359 52.9959 18.5737 53.6901 18.5737C54.3819 18.5737 54.9459 19.1334 54.9459 19.8255V19.8655C54.9509 19.9929 54.9559 20.2377 54.9459 20.57V20.7223C55.0562 22.891 56.0161 28.5348 63.0192 28.5348C63.711 28.5348 64.275 29.0944 64.275 29.7865C64.275 30.476 63.7136 31.0382 63.0192 31.0382C58.9964 31.0382 56.4974 29.6216 54.9459 27.7928V29.1644C54.9509 29.2918 54.9559 29.5366 54.9459 29.869V30.0213C55.0562 32.1899 56.0161 37.8337 63.0192 37.8337C63.711 37.8337 64.275 38.3934 64.275 39.0855C64.275 39.775 63.7136 40.3371 63.0192 40.3371C58.9964 40.3371 56.4974 38.9205 54.9459 37.0917V38.4634C54.9509 38.5908 54.9559 38.8356 54.9459 39.1679V39.3203ZM101.835 45.6911H107.394V51.2325H101.835V45.6911ZM93.6034 53.3962H99.1653V58.9376H93.6034V53.3962ZM101.835 53.3962H107.394V58.9376H101.835V53.3962Z" fill="#00C194"></path></svg>