<svg xmlns="http://www.w3.org/2000/svg" width="53" height="62" viewBox="0 0 53 62" fill="none"><path d="M26.2 61.05C26.1 61.05 25.9 61.05 25.8 60.95C0.299997 49.85 0 10.45 0 10.05C0 9.55 0.4 9.15 0.8 9.15C15.5 7.55 25.5 0.15 25.6 0.15C25.9 -0.05 26.4 -0.05 26.7 0.15C26.8 0.25 36.8 7.55 51.5 9.15C52 9.25 52.3 9.65 52.3 10.05C52.3 10.45 52 49.85 26.5 61.05C26.5 61.05 26.3 61.05 26.2 61.05ZM1.9 10.85C2.1 16.45 4.2 49.15 26.2 59.15C48.3 49.15 50.3 16.45 50.5 10.85C37.6 9.25 28.5 3.55 26.2 1.95C23.9 3.55 14.8 9.25 1.9 10.85Z" fill="#00C194"></path><path d="M26.2 57.25L25.8 57.05C8.00001 48.05 4.50001 23.35 3.70001 13.15L3.60001 12.35L4.40001 12.25C14.5 10.55 22 6.55 25.6 4.35L26.1 4.05L26.6 4.35C30.2 6.55 37.7 10.55 47.8 12.25L48.6 12.35L48.5 13.15C47.8 23.35 44.2 47.95 26.5 56.95L26.2 57.25ZM5.70001 13.85C6.40001 22.35 9.80001 46.35 26.2 55.05C42.6 46.45 46 22.35 46.7 13.85C37.2 12.15 30 8.45 26.2 6.15C22.4 8.45 15.2 12.15 5.70001 13.85Z" fill="#00C194"></path><path d="M34.5 37.25H17.9C17.4 37.25 17 36.85 17 36.35V21.85C17 21.35 17.4 20.95 17.9 20.95H34.5C35 20.95 35.4 21.35 35.4 21.85V36.35C35.4 36.85 35 37.25 34.5 37.25ZM18.8 35.45H33.6V22.85H18.8V35.45Z" fill="#00C194"></path><path d="M36.8 22.85H15.6C15.2 22.85 14.9 22.65 14.7 22.25C14.6 21.85 14.7 21.45 15 21.25L25.6 12.35C25.9 12.05 26.5 12.05 26.8 12.35L37.4 21.25C37.7 21.55 37.8 21.95 37.7 22.25C37.5 22.55 37.2 22.85 36.8 22.85ZM18.2 20.95H34.2L26.2 14.25L18.2 20.95Z" fill="#00C194"></path><path d="M28.4 37.25H24C23.5 37.25 23.1 36.85 23.1 36.35V29.15C23.1 28.65 23.5 28.25 24 28.25H28.4C28.9 28.25 29.3 28.65 29.3 29.15V36.35C29.3 36.85 28.9 37.25 28.4 37.25ZM24.9 35.45H27.4V30.05H24.9V35.45Z" fill="#00C194"></path><path d="M37.1 37.25H15.3C14.8 37.25 14.4 36.85 14.4 36.35C14.4 35.85 14.8 35.45 15.3 35.45H37.2C37.7 35.45 38.1 35.85 38.1 36.35C38.1 36.85 37.7 37.25 37.1 37.25Z" fill="#00C194"></path><path d="M34.1 41.55H18.3C17.8 41.55 17.4 41.15 17.4 40.65C17.4 40.15 17.8 39.75 18.3 39.75H34.1C34.6 39.75 35 40.15 35 40.65C35.1 41.15 34.6 41.55 34.1 41.55Z" fill="#00C194"></path></svg>