<svg xmlns="http://www.w3.org/2000/svg" width="37" height="60" viewBox="0 0 37 60" fill="none"><path d="M18.1 54C17.1 54 16.1 53.5 15.5 52.6L3.2 34.4C-1.1 28 -1 19.7 3.4 13.4C3.7 13 4.3 12.9 4.7 13.2C5.1 13.5 5.2 14.1 4.9 14.5C0.9 20.2 0.799998 27.7 4.7 33.4L17 51.6C17.5 52.3 18.6 52.3 19.1 51.6L31.4 33.4C35.3 27.6 35.2 20.1 31.1 14.4C30.8 14 30.9 13.4 31.3 13.1C31.7 12.8 32.3 12.9 32.6 13.3C37.1 19.7 37.3 28 32.9 34.5L20.6 52.6C20.1 53.5 19.1 54 18.1 54Z" fill="#00C194"></path><path d="M21 27.1H15.1C14.6 27.1 14.2 26.7 14.2 26.2V18.3C14.2 17.8 14.6 17.4 15.1 17.4H21C21.5 17.4 21.9 17.8 21.9 18.3V26.2C22 26.7 21.5 27.1 21 27.1ZM16 25.2H20.1V19.2H16V25.2Z" fill="#00C194"></path><path d="M30.6 11.3H5.5C5.1 11.3 4.7 11 4.6 10.7C4.5 10.3 4.6 9.89999 4.9 9.69999L17.5 0.299994C17.8 0.0999939 18.3 0.0999939 18.6 0.299994L31.2 9.69999C31.5 9.89999 31.7 10.4 31.5 10.7C31.4 11 31 11.3 30.6 11.3ZM8.3 9.39999H27.8L18 2.09999L8.3 9.39999Z" fill="#00C194"></path><path d="M29.5 30.5H6.50001C6.00001 30.5 5.60001 30.1 5.60001 29.6V26.2C5.60001 25.7 6.00001 25.3 6.50001 25.3H29.5C30 25.3 30.4 25.7 30.4 26.2V29.6C30.5 30 30.1 30.5 29.5 30.5ZM7.50001 28.6H28.6V27.1H7.50001V28.6Z" fill="#00C194"></path><path d="M27.7 27.1H8.50001C8.00001 27.1 7.60001 26.7 7.60001 26.2V10.3C7.60001 9.79999 8.00001 9.39999 8.50001 9.39999H27.7C28.2 9.39999 28.6 9.79999 28.6 10.3V26.1C28.6 26.7 28.2 27.1 27.7 27.1ZM9.40001 25.2H26.7V11.2H9.40001V25.2Z" fill="#00C194"></path><path d="M18.1 59.8C10.1 59.8 3.70001 55 3.70001 49C3.70001 48.2 3.80001 47.5 4.00001 46.8C4.10001 46.3 4.70001 46 5.10001 46.2C5.60001 46.3 5.90001 46.9 5.70001 47.3C5.50001 47.9 5.50001 48.5 5.50001 49C5.50001 53.9 11.1 58 18 58C24.9 58 30.5 54 30.5 49C30.5 48.4 30.4 47.8 30.3 47.3C30.2 46.8 30.5 46.3 30.9 46.2C31.4 46.1 31.9 46.4 32 46.8C32.2 47.5 32.3 48.3 32.3 49C32.5 55 26 59.8 18.1 59.8Z" fill="#00C194"></path><path d="M18.1 36.1C13.6 36.1 9.49999 33.8 7.19999 30C6.89999 29.6 7.09999 29 7.49999 28.7C7.89999 28.4 8.49999 28.6 8.79999 29C10.8 32.3 14.3 34.2 18.1 34.2C21.9 34.2 25.4 32.3 27.4 29C27.7 28.6 28.2 28.4 28.7 28.7C29.1 29 29.3 29.5 29 30C26.6 33.8 22.5 36.1 18.1 36.1Z" fill="#00C194"></path></svg>